<svg width="21" height="20" viewBox="0 0 21 20" fill="none" xmlns="http://www.w3.org/2000/svg">
<path d="M7.99935 18.3333H12.9993C17.166 18.3333 18.8327 16.6666 18.8327 12.5V7.49996C18.8327 3.33329 17.166 1.66663 12.9993 1.66663H7.99935C3.83268 1.66663 2.16602 3.33329 2.16602 7.49996V12.5C2.16602 16.6666 3.83268 18.3333 7.99935 18.3333Z" stroke="#1E1E1E" stroke-linecap="round" stroke-linejoin="round"/>
<path d="M8.00065 8.33333C8.92113 8.33333 9.66732 7.58714 9.66732 6.66667C9.66732 5.74619 8.92113 5 8.00065 5C7.08018 5 6.33398 5.74619 6.33398 6.66667C6.33398 7.58714 7.08018 8.33333 8.00065 8.33333Z" stroke="#1E1E1E" stroke-linecap="round" stroke-linejoin="round"/>
<path d="M2.72412 15.7917L6.83245 13.0333C7.49079 12.5917 8.44079 12.6417 9.03245 13.15L9.30745 13.3917C9.95745 13.95 11.0075 13.95 11.6575 13.3917L15.1241 10.4167C15.7741 9.85834 16.8241 9.85834 17.4741 10.4167L18.8325 11.5833" stroke="#1E1E1E" stroke-linecap="round" stroke-linejoin="round"/>
</svg>
