<svg width="20" height="20" viewBox="0 0 20 20" fill="none" xmlns="http://www.w3.org/2000/svg">
<path d="M15.8916 15.8916C19.1499 12.6333 19.1499 7.35828 15.8916 4.10828" stroke="#1E1E1E" stroke-linecap="round" stroke-linejoin="round"/>
<path d="M4.1083 4.10828C0.849967 7.36661 0.849967 12.6416 4.1083 15.8916" stroke="#1E1E1E" stroke-linecap="round" stroke-linejoin="round"/>
<path d="M7.25 17.8417C8.14167 18.15 9.06666 18.3 9.99999 18.3C10.9333 18.2917 11.8583 18.15 12.75 17.8417" stroke="#1E1E1E" stroke-linecap="round" stroke-linejoin="round"/>
<path d="M7.25 2.15833C8.14167 1.84999 9.06666 1.69995 9.99999 1.69995C10.9333 1.69995 11.8583 1.84999 12.75 2.15833" stroke="#1E1E1E" stroke-linecap="round" stroke-linejoin="round"/>
<path d="M7.2832 10V8.60838C7.2832 6.87505 8.50822 6.1667 10.0082 7.03337L11.2165 7.73339L12.4249 8.43336C13.9249 9.30003 13.9249 10.7167 12.4249 11.5834L11.2165 12.2834L10.0082 12.9834C8.50822 13.85 7.2832 13.1417 7.2832 11.4084V10Z" stroke="#1E1E1E" stroke-miterlimit="10" stroke-linecap="round" stroke-linejoin="round"/>
</svg>
