<svg width="10" height="6" viewBox="0 0 10 6" fill="none" xmlns="http://www.w3.org/2000/svg">
<path fill-rule="evenodd" clip-rule="evenodd" d="M5.47133 5.47124C5.34631 5.59622 5.17677 5.66643 4.99999 5.66643C4.82322 5.66643 4.65368 5.59622 4.52866 5.47124L0.757328 1.6999C0.693655 1.63841 0.642866 1.56484 0.607927 1.48351C0.572988 1.40217 0.554597 1.31469 0.553828 1.22617C0.553058 1.13765 0.569926 1.04986 0.603447 0.967934C0.636968 0.886003 0.68647 0.811568 0.749065 0.748973C0.81166 0.686378 0.886094 0.636876 0.968025 0.603355C1.04996 0.569835 1.13774 0.552967 1.22626 0.553736C1.31478 0.554505 1.40226 0.572896 1.4836 0.607836C1.56493 0.642775 1.6385 0.693563 1.69999 0.757236L4.99999 4.05724L8.3 0.757236C8.42573 0.635798 8.59413 0.568601 8.76893 0.57012C8.94373 0.571639 9.11094 0.641752 9.23454 0.765357C9.35815 0.888962 9.42826 1.05617 9.42978 1.23097C9.4313 1.40577 9.3641 1.57417 9.24266 1.6999L5.47133 5.47124Z" fill="#1E1E1E"/>
</svg>
