<svg width="24" height="24" viewBox="0 0 24 24" fill="none" xmlns="http://www.w3.org/2000/svg">
<g clip-path="url(#clip0_44_220)">
<path d="M8.25001 22.6125V17.4375L4.38751 20.2875C5.47501 21.3 6.78751 22.0875 8.25001 22.6125ZM15.75 22.6125C17.2125 22.0875 18.525 21.3 19.6125 20.2875L15.75 17.4V22.6125ZM1.38751 15.75C1.50001 16.125 1.65001 16.4625 1.83751 16.8375L3.30001 15.75H1.38751ZM20.7 15.75L22.1625 16.8375C22.3125 16.5 22.4625 16.125 22.6125 15.75H20.7Z" fill="#2A5F9E"/>
<path d="M8.81251 14.25H0.975006C1.08751 14.775 1.23751 15.2625 1.38751 15.75H3.30001L1.83751 16.8375C2.13751 17.475 2.47501 18.0375 2.88751 18.6L6.75001 15.75H8.25001V16.5L3.86251 19.725L4.38751 20.25L8.25001 17.4375V22.6125C8.73751 22.8 9.22501 22.9125 9.75001 23.025V14.25H8.81251ZM23.025 14.25H14.25V23.025C14.775 22.9125 15.2625 22.7625 15.75 22.6125V17.4375L19.6125 20.25C20.1375 19.7625 20.5875 19.2375 21.0375 18.675L17.025 15.75H19.575L21.8625 17.4375C21.975 17.25 22.0875 17.025 22.1625 16.8375L20.7 15.75H22.6125C22.7625 15.2625 22.9125 14.775 23.025 14.25Z" fill="white"/>
<path d="M2.88751 18.6C3.18751 19.0125 3.48751 19.3875 3.82501 19.7625L8.25001 16.5375V15.7875H6.75001L2.88751 18.6ZM17.0625 15.75L21.075 18.675C21.225 18.4875 21.3375 18.3 21.4875 18.1125C21.525 18.075 21.525 18.0375 21.5625 18.0375C21.675 17.85 21.825 17.625 21.9375 17.4375L19.575 15.75H17.0625Z" fill="#ED4C5C"/>
<path d="M15.75 1.38745V6.56245L19.6125 3.71245C18.525 2.69995 17.2125 1.91245 15.75 1.38745ZM8.25001 1.38745C6.78751 1.91245 5.47501 2.69995 4.38751 3.71245L8.25001 6.59995V1.38745ZM22.6125 8.24995C22.5 7.87495 22.35 7.53745 22.1625 7.16245L20.7 8.24995H22.6125ZM3.30001 8.24995L1.83751 7.16245C1.68751 7.53745 1.53751 7.87495 1.38751 8.24995H3.30001Z" fill="#2A5F9E"/>
<path d="M15.1875 9.74998H22.9875C22.875 9.22498 22.725 8.73748 22.575 8.24998H20.6625L22.125 7.16248C21.825 6.52498 21.4875 5.96248 21.075 5.39998L17.25 8.24998H15.75V7.49998L20.1375 4.27498L19.6125 3.74998L15.75 6.56248V1.38748C15.2625 1.19998 14.775 1.08748 14.25 0.974976V9.74998H15.1875ZM0.975006 9.74998H9.75001V0.974976C9.22501 1.08748 8.73751 1.23748 8.25001 1.38748V6.56248L4.38751 3.74998C3.86251 4.23748 3.41251 4.76248 2.96251 5.32498L6.97501 8.24998H4.42501L2.13751 6.56248C2.02501 6.74998 1.91251 6.97498 1.83751 7.16248L3.30001 8.24998H1.38751C1.23751 8.73748 1.08751 9.22498 0.975006 9.74998Z" fill="white"/>
<path d="M21.1125 5.40005C20.8125 4.98755 20.5125 4.61255 20.175 4.23755L15.75 7.46255V8.21255H17.25L21.1125 5.40005ZM6.93751 8.25005L2.96251 5.32505C2.81251 5.51255 2.70001 5.70005 2.55001 5.88755C2.51251 5.92505 2.51251 5.96255 2.47501 5.96255C2.36251 6.15005 2.21251 6.37505 2.10001 6.56255L4.38751 8.25005H6.93751Z" fill="#ED4C5C"/>
<path d="M23.025 9.75H14.25V0.975C13.5375 0.825 12.7875 0.75 12 0.75C11.2125 0.75 10.4625 0.825 9.75 0.975V9.75H0.975C0.825 10.4625 0.75 11.2125 0.75 12C0.75 12.7875 0.825 13.5375 0.975 14.25H9.75V23.025C10.4625 23.175 11.2125 23.25 12 23.25C12.7875 23.25 13.5375 23.175 14.25 23.025V14.25H23.025C23.175 13.5375 23.25 12.7875 23.25 12C23.25 11.2125 23.175 10.4625 23.025 9.75Z" fill="#ED4C5C"/>
</g>
<defs>
<clipPath id="clip0_44_220">
<rect width="24" height="24" fill="white"/>
</clipPath>
</defs>
</svg>
