<svg width="32" height="32" viewBox="0 0 32 32" fill="none" xmlns="http://www.w3.org/2000/svg">
<g clip-path="url(#clip0_44_233)" filter="url(#filter0_d_44_233)">
<path d="M4.75 12C4.75 14.2125 5.3875 16.275 6.475 18H25.4875C26.575 16.275 27.2125 14.2125 27.2125 12C27.2125 9.7875 26.575 7.725 25.4875 6H6.475C5.3875 7.725 4.75 9.7875 4.75 12Z" fill="#FFCE31"/>
<path d="M25.525 6C23.5375 2.85 20.0125 0.75 16 0.75C11.9875 0.75 8.46251 2.85 6.47501 6H25.525ZM6.47501 18C8.46251 21.15 11.9875 23.25 16 23.25C20.0125 23.25 23.5375 21.15 25.525 18H6.47501Z" fill="#ED4C5C"/>
<path d="M7.45001 10.7625H8.65001V11.4375H7.45001V10.7625ZM7.45001 15.7125H8.68751V16.35H7.45001V15.7125Z" fill="#C8B100"/>
<path d="M7.33749 14.6625C7.22499 14.7375 7.14999 14.8125 7.14999 14.85C7.14999 14.8875 7.18749 14.925 7.26249 14.9625C7.33749 15 7.41249 15.075 7.37499 15.15C7.44999 15.075 7.48749 15 7.48749 14.925C7.48749 14.8125 7.41249 14.7 7.33749 14.6625Z" fill="#ED4C5C"/>
<path d="M7.63751 11.4375H8.50001V15.7125H7.63751V11.4375Z" fill="white"/>
<path d="M9.39999 13.0125C9.21249 12.9375 8.87499 12.8625 8.49999 12.8625C8.38749 12.8625 8.23749 12.8625 8.08749 12.9C7.56249 12.975 7.14999 13.2 7.18749 13.35L6.99999 12.9375C6.96249 12.75 7.41249 12.525 7.97499 12.4125C8.16249 12.375 8.34999 12.375 8.49999 12.375C8.87499 12.375 9.21249 12.4125 9.39999 12.4875V13.0125Z" fill="#ED4C5C"/>
<path d="M7.63748 13.575C7.41248 13.575 7.22498 13.5 7.22498 13.3875C7.22498 13.3125 7.29998 13.2 7.44998 13.125H7.67498L7.63748 13.575ZM8.49998 13.2375C8.64998 13.275 8.76248 13.3125 8.83748 13.35C8.87498 13.3875 8.72498 13.5375 8.49998 13.65V13.2375Z" fill="#ED4C5C"/>
<path d="M7.07498 14.4C7.03748 14.325 7.29998 14.175 7.63748 14.0625C7.78748 14.025 7.89998 13.95 8.08748 13.875C8.53748 13.6875 8.91248 13.425 8.83748 13.35L8.91248 13.8C8.94998 13.875 8.64998 14.1 8.19998 14.325C8.04998 14.4 7.78748 14.5125 7.63748 14.55C7.37498 14.625 7.14998 14.775 7.14998 14.8125L7.07498 14.4Z" fill="#ED4C5C"/>
<path d="M15.5125 10.7625H16.7125V11.4375H15.5125V10.7625ZM15.475 15.7125H16.7125V16.35H15.475V15.7125Z" fill="#C8B100"/>
<path d="M16.825 14.6625C16.9375 14.7375 17.0125 14.8125 17.0125 14.85C17.0125 14.8875 16.975 14.925 16.9 14.9625C16.825 15.0375 16.75 15.15 16.7875 15.1875C16.7125 15.1125 16.675 15.0375 16.675 14.9625C16.675 14.8125 16.75 14.7 16.825 14.6625Z" fill="#ED4C5C"/>
<path d="M15.6625 11.4375H16.525V15.7125H15.6625V11.4375Z" fill="white"/>
<path d="M14.7625 13.0125C14.95 12.9375 15.2875 12.8625 15.6625 12.8625C15.775 12.8625 15.925 12.8625 16.075 12.9C16.6 12.975 17.0125 13.2 16.975 13.35L17.1625 12.9C17.2 12.7125 16.75 12.4875 16.1875 12.375H15.6625C15.2875 12.375 14.95 12.4125 14.7625 12.4875V13.0125Z" fill="#ED4C5C"/>
<path d="M16.525 13.575C16.75 13.575 16.9375 13.5 16.9375 13.3875C16.9375 13.3125 16.8625 13.2 16.7125 13.125H16.4875L16.525 13.575ZM15.6625 13.2375C15.5125 13.275 15.4 13.3125 15.325 13.35C15.2875 13.3875 15.4375 13.5375 15.6625 13.65V13.2375Z" fill="#ED4C5C"/>
<path d="M17.0875 14.4C17.125 14.325 16.8625 14.175 16.525 14.0625C16.375 14.025 16.2625 13.95 16.075 13.875C15.625 13.6875 15.25 13.425 15.325 13.35L15.25 13.8C15.2125 13.875 15.5125 14.1 15.9625 14.325C16.1125 14.4 16.375 14.5125 16.525 14.55C16.7875 14.625 17.0125 14.8125 16.975 14.85L17.0875 14.4ZM12.0625 8.36255C12.775 8.36255 14.2375 8.51255 14.7625 9.03755C14.2 10.3875 13.3 9.82505 12.0625 9.82505C10.8625 9.82505 9.92499 10.3875 9.36249 9.03755C9.88749 8.51255 11.3125 8.36255 12.0625 8.36255Z" fill="#ED4C5C"/>
<path d="M13.9 9.8625C13.45 9.6 12.775 9.5625 12.0625 9.5625C11.35 9.5625 10.675 9.6375 10.225 9.8625L10.375 10.5C10.7875 10.6125 11.3875 10.6875 12.0625 10.6875C12.7375 10.6875 13.3 10.6125 13.75 10.5L13.9 9.8625ZM14.5375 8.25C14.3875 8.1375 14.0875 8.025 13.825 8.025C13.7125 8.025 13.6 8.025 13.4875 8.0625C13.4875 8.0625 13.2625 7.7625 12.7375 7.7625C12.55 7.7625 12.4 7.8 12.25 7.875V7.8375C12.2125 7.7625 12.1375 7.6875 12.0625 7.6875C11.9875 7.6875 11.875 7.8 11.875 7.875V7.9125C11.725 7.8375 11.575 7.8 11.3875 7.8C10.8625 7.8 10.6375 8.1375 10.6375 8.1C10.525 8.0625 10.4125 8.0625 10.3 8.0625C8.57499 8.0625 9.43749 9.225 9.43749 9.225L9.62499 9C9.21249 8.475 9.58749 8.175 10.3375 8.175C10.45 8.175 10.525 8.175 10.6 8.2125C10.3375 8.5875 10.825 8.925 10.825 8.925L10.9375 8.7375C10.675 8.55 10.6375 7.9125 11.3875 7.9125C11.575 7.9125 11.725 7.95 11.875 8.0625C11.875 8.1 11.8375 8.625 11.8 8.7L12.1 8.9625L12.4 8.7C12.3625 8.5875 12.325 8.1 12.325 8.0625C12.4375 7.9875 12.625 7.9125 12.8125 7.9125C13.6 7.9125 13.6 8.55 13.2625 8.7375L13.375 8.925C13.375 8.925 13.7875 8.5875 13.6 8.2125C13.675 8.2125 13.7875 8.175 13.8625 8.175C14.7625 8.175 14.8 8.85 14.575 9L14.725 9.225C14.65 9.225 15.0625 8.7 14.5375 8.25Z" fill="#C8B100"/>
<path d="M11.8375 7.5375C11.8375 7.425 11.95 7.3125 12.0625 7.3125C12.2125 7.3125 12.2875 7.425 12.2875 7.5375C12.2875 7.65 12.175 7.7625 12.0625 7.7625C11.95 7.7625 11.8375 7.65 11.8375 7.5375Z" fill="#005BBF"/>
<path d="M11.9875 6.90002V7.01252H11.875V7.12502H11.9875V7.50002H11.8375V7.61252H12.2875L12.325 7.53752L12.2875 7.50002H12.1375V7.12502H12.25V7.01252H12.1375V6.90002H11.9875Z" fill="#C8B100"/>
<path d="M12.0625 10.6125C11.4625 10.6125 10.9375 10.5375 10.525 10.425C10.9375 10.3125 11.4625 10.2375 12.0625 10.2375C12.6625 10.2375 13.1875 10.3125 13.6 10.425C13.225 10.5375 12.6625 10.6125 12.0625 10.6125Z" fill="#ED4C5C"/>
<path d="M12.1 17.1C11.3875 17.1 10.7125 16.9125 10.1125 16.65C9.66249 16.425 9.39999 16.0125 9.39999 15.525V13.725H14.8V15.525C14.8 16.0125 14.5 16.4625 14.0875 16.65C13.4875 16.95 12.8125 17.1 12.1 17.1ZM12.0625 10.725H14.7625V13.725H12.0625V10.725Z" fill="white"/>
<path d="M12.1 15.525C12.1 16.2375 11.5 16.8 10.75 16.8C9.99999 16.8 9.39999 16.2375 9.39999 15.525V13.725H12.1V15.525Z" fill="#ED4C5C"/>
<path d="M9.96249 16.575C10.0375 16.6125 10.15 16.6875 10.3 16.725V13.65H9.99999L9.96249 16.575ZM9.36249 15.4875C9.36249 15.8625 9.51249 16.1625 9.66249 16.3125V13.65H9.36249V15.4875Z" fill="#C8B100"/>
<path d="M10.5625 16.8H10.8625V13.65H10.5625V16.8Z" fill="#C7B500"/>
<path d="M11.1625 16.725C11.275 16.6875 11.425 16.6125 11.5 16.575V13.65H11.2L11.1625 16.725Z" fill="#C8B100"/>
<path d="M9.36249 10.725H12.0625V13.725H9.36249V10.725Z" fill="#ED4C5C"/>
<path d="M11.8 16.3125C11.95 16.2 12.0625 15.9375 12.1 15.6375V13.6875H11.8V16.3125Z" fill="#C8B100"/>
<path d="M14.8 13.725V15.525C14.8 16.2375 14.2 16.8 13.45 16.8C12.7 16.8 12.1 16.2375 12.1 15.525V13.725H14.8ZM13.825 11.25C13.9375 11.475 13.9375 12.0375 13.6 11.925C13.675 11.9625 13.7125 12.225 13.825 12.375C14.0125 12.6 14.2375 12.4125 14.2 12.15C14.125 11.7375 14.1625 11.475 14.2375 11.0625C14.2375 11.1 14.425 11.1 14.5 11.025C14.4625 11.1375 14.425 11.2875 14.5 11.2875C14.425 11.4 14.2375 11.5875 14.2 11.7C14.1625 11.9625 14.575 12.45 14.125 12.5625C13.825 12.6375 14.0125 12.8625 14.125 12.975C14.125 12.975 13.975 13.4625 14.05 13.425C13.75 13.5375 13.825 13.275 13.825 13.275C13.975 12.825 13.5625 12.7875 13.6 12.7125C13.225 12.675 13.6375 13.05 13.3 13.05C13.225 13.05 13.075 13.125 13.075 13.125C12.6625 13.0875 12.8875 12.7125 13.0375 12.75C13.15 12.7875 13.2625 12.975 13.2625 12.7125C13.2625 12.7125 13.075 12.4125 13.5625 12.4125C13.375 12.4125 13.2625 12.2625 13.1875 12.075C13.1125 12.1125 13 12.3 12.5875 12.3375C12.5875 12.3375 12.475 11.925 12.5875 12C12.7375 12.075 12.8125 12.075 12.9625 11.925C12.8875 11.8125 12.4375 11.6625 12.5125 11.4C12.5125 11.325 12.7375 11.2125 12.7375 11.2125C12.7 11.4 12.8125 11.5875 13.0375 11.5875C13.3375 11.625 13.225 11.5125 13.2625 11.4375C13.3 11.3625 13.525 11.475 13.45 11.2875C13.45 11.25 13.1875 11.2125 13.2625 11.1C13.4125 10.9125 13.6375 11.0625 13.825 11.25ZM12.1 16.725L12.025 16.5375L12.1 16.3125L12.175 16.5375L12.1 16.725Z" fill="#ED4C5C"/>
<path d="M10.1875 11.3625V11.55H10.2625V11.7H10.075V12.075H10.1875V12.9H9.96249V13.3125H11.5V12.9H11.3125V12.075H11.3875V11.7H11.2V11.55H11.3125V11.3625H10.9375V11.55H11.0125V11.7H10.825V11.25H10.9375V11.0625H10.525V11.25H10.6375V11.7H10.45V11.55H10.525V11.3625H10.1875ZM14.425 15.975V14.1H12.475V15.975L13.375 16.3875H13.4875L14.425 15.975ZM13.375 14.25V14.8875L12.7375 14.25H13.375ZM12.5875 14.2875L13.3375 15.0375L12.5875 15.7875V14.2875ZM12.6625 15.9375L13.375 15.225V16.275L12.6625 15.9375ZM13.4875 16.2375V15.1875L14.2 15.9L13.4875 16.2375ZM14.275 15.7875L13.525 15.0375L14.275 14.2875V15.7875ZM13.4875 14.25H14.125L13.4875 14.8875V14.25Z" fill="#C8B100"/>
<path d="M11.2 13.6875C11.2 13.125 11.575 12.7125 12.0625 12.7125C12.55 12.7125 12.925 13.1625 12.925 13.6875C12.925 14.2125 12.55 14.6625 12.0625 14.6625C11.575 14.6625 11.2 14.25 11.2 13.6875Z" fill="#ED4C5C"/>
<path d="M11.4625 13.6875C11.4625 13.275 11.725 12.975 12.0625 12.975C12.4 12.975 12.6625 13.3125 12.6625 13.6875C12.6625 14.1 12.4 14.4 12.0625 14.4C11.7625 14.4375 11.4625 14.1 11.4625 13.6875Z" fill="#005BBF"/>
<path d="M11.8 13.2L11.65 13.6125L11.7625 13.65L11.6875 13.8H11.9125L11.8375 13.65L11.95 13.6125L11.8 13.2ZM12.3625 13.2L12.2125 13.6125L12.325 13.65L12.25 13.8H12.475L12.4375 13.65L12.55 13.6125L12.3625 13.2ZM12.1 13.6875L11.9125 14.1L12.025 14.1375L11.9875 14.2875H12.175L12.1375 14.1375L12.25 14.1L12.1 13.6875Z" fill="#C8B100"/>
</g>
<defs>
<filter id="filter0_d_44_233" x="0" y="0" width="32" height="32" filterUnits="userSpaceOnUse" color-interpolation-filters="sRGB">
<feFlood flood-opacity="0" result="BackgroundImageFix"/>
<feColorMatrix in="SourceAlpha" type="matrix" values="0 0 0 0 0 0 0 0 0 0 0 0 0 0 0 0 0 0 127 0" result="hardAlpha"/>
<feOffset dy="4"/>
<feGaussianBlur stdDeviation="2"/>
<feComposite in2="hardAlpha" operator="out"/>
<feColorMatrix type="matrix" values="0 0 0 0 0 0 0 0 0 0 0 0 0 0 0 0 0 0 0.25 0"/>
<feBlend mode="normal" in2="BackgroundImageFix" result="effect1_dropShadow_44_233"/>
<feBlend mode="normal" in="SourceGraphic" in2="effect1_dropShadow_44_233" result="shape"/>
</filter>
<clipPath id="clip0_44_233">
<rect width="24" height="24" fill="white" transform="translate(4)"/>
</clipPath>
</defs>
</svg>
