<svg width="18" height="19" viewBox="0 0 18 19" fill="none" xmlns="http://www.w3.org/2000/svg">
<g clip-path="url(#clip0_8_394)">
<path d="M1.95005 17.45C1.50005 17.45 1.20005 17.3 0.975049 17C0.750049 16.775 0.675049 16.475 0.750049 16.175L1.65005 7.62495C1.72505 7.32495 2.32505 6.94995 2.92505 6.94995H15.0001C15.6751 6.94995 16.2001 7.32495 16.2751 7.62495L17.25 16.1C17.3251 16.475 17.2501 16.775 17.0251 17C16.8001 17.3 16.425 17.45 16.05 17.45H1.95005ZM11.175 3.94995C10.8 3.94995 10.5751 3.87495 10.5 3.72495C10.5 3.64995 10.5 3.57495 10.5 3.57495V1.09995C10.6501 1.02495 10.9501 0.949951 11.7001 0.949951H14.6251C15.1501 0.949951 15.5251 1.24995 15.5251 1.32495L15.7501 3.64995V3.72495C15.6751 3.87495 15.3751 3.94995 15.0751 3.94995H11.175ZM2.92505 3.94995C2.62505 3.94995 2.32505 3.87495 2.25005 3.72495V3.64995L2.55005 1.32495C2.55005 1.24995 2.92505 0.949951 3.45005 0.949951H6.37505C7.12505 0.949951 7.42505 1.02495 7.57505 1.09995V3.49995C7.27505 3.72495 6.60005 3.94995 6.07505 3.94995H2.92505Z" fill="#E7F6FD"/>
<path d="M14.55 1.69995C14.625 1.69995 14.7 1.69995 14.775 1.69995L14.925 3.19995H11.25V1.69995C11.4 1.69995 11.475 1.69995 11.7 1.69995H14.55ZM6.29998 1.69995C6.52498 1.69995 6.67498 1.69995 6.74998 1.69995V3.04995C6.52498 3.12495 6.29998 3.19995 6.07498 3.19995H3.07498L3.22498 1.69995C3.29998 1.69995 3.37498 1.69995 3.44998 1.69995H6.29998ZM15.075 7.69995C15.3 7.69995 15.525 7.77495 15.6 7.84995L16.5 16.175V16.25C16.5 16.4 16.5 16.475 16.425 16.475C16.35 16.55 16.2 16.625 15.975 16.625H1.94998C1.72498 16.625 1.57498 16.55 1.49998 16.475C1.49998 16.475 1.49998 16.475 1.49998 16.325V16.25L2.39998 7.92495C2.47498 7.77495 2.69998 7.69995 2.92498 7.69995H15.075ZM14.55 0.199951H11.625C10.875 0.199951 9.74998 0.274951 9.74998 0.949951V3.57495C9.59998 4.17495 10.275 4.69995 11.175 4.69995H15.075C15.975 4.69995 16.65 4.17495 16.5 3.57495L16.2 1.24995C16.125 0.649951 15.375 0.199951 14.55 0.199951ZM6.29998 0.199951H3.44998C2.62498 0.199951 1.87498 0.649951 1.79998 1.17495L1.49998 3.57495C1.42498 4.17495 2.02498 4.69995 2.92498 4.69995H6.07498C6.97498 4.69995 8.39998 4.17495 8.24998 3.57495V0.949951C8.24998 0.274951 7.12498 0.199951 6.29998 0.199951ZM15.075 6.19995H2.92498C1.94998 6.19995 1.04998 6.79995 0.974976 7.54995L-2.37226e-05 16.025C-0.150024 17.225 0.674976 18.2 1.94998 18.2H15.975C17.25 18.2 18.15 17.225 17.925 16.025L17.025 7.54995C16.95 6.79995 16.05 6.19995 15.075 6.19995Z" fill="#2B59FF"/>
</g>
<defs>
<clipPath id="clip0_8_394">
<rect width="18" height="18" fill="white" transform="translate(0 0.199951)"/>
</clipPath>
</defs>
</svg>
