<svg width="24" height="25" viewBox="0 0 24 25" fill="none" xmlns="http://www.w3.org/2000/svg">
<g clip-path="url(#clip0_8_289)">
<path d="M12 2.19995C14.3869 2.19995 16.6761 3.14816 18.364 4.83599C20.0518 6.52382 21 8.813 21 11.2C21 14.274 19.324 16.79 17.558 18.595C16.6755 19.4868 15.7128 20.2956 14.682 21.011L14.256 21.301L14.056 21.434L13.679 21.674L13.343 21.879L12.927 22.121C12.6445 22.2817 12.325 22.3663 12 22.3663C11.675 22.3663 11.3555 22.2817 11.073 22.121L10.657 21.879L10.137 21.559L9.945 21.434L9.535 21.161C8.42298 20.4083 7.38707 19.5489 6.442 18.595C4.676 16.789 3 14.274 3 11.2C3 8.813 3.94821 6.52382 5.63604 4.83599C7.32387 3.14816 9.61305 2.19995 12 2.19995ZM12 8.19995C11.606 8.19995 11.2159 8.27755 10.8519 8.42831C10.488 8.57908 10.1573 8.80005 9.87868 9.07863C9.6001 9.35721 9.37913 9.68792 9.22836 10.0519C9.0776 10.4159 9 10.806 9 11.2C9 11.5939 9.0776 11.984 9.22836 12.348C9.37913 12.712 9.6001 13.0427 9.87868 13.3213C10.1573 13.5998 10.488 13.8208 10.8519 13.9716C11.2159 14.1224 11.606 14.2 12 14.2C12.7956 14.2 13.5587 13.8839 14.1213 13.3213C14.6839 12.7587 15 11.9956 15 11.2C15 10.4043 14.6839 9.64124 14.1213 9.07863C13.5587 8.51602 12.7956 8.19995 12 8.19995Z" fill="#2B59FF"/>
</g>
<defs>
<clipPath id="clip0_8_289">
<rect width="24" height="24" fill="white" transform="translate(0 0.199951)"/>
</clipPath>
</defs>
</svg>
