<svg width="18" height="19" viewBox="0 0 18 19" fill="none" xmlns="http://www.w3.org/2000/svg">
<g clip-path="url(#clip0_8_398)">
<path d="M3.07498 9.94995C3.37498 8.44995 4.57498 7.24995 6.14998 7.02495L6.74998 6.87495L7.34998 6.94995C8.92498 7.17495 10.125 8.37495 10.425 9.87495H3.07498V9.94995Z" fill="#E7F6FD"/>
<path d="M6.74999 7.69995L7.27499 7.77495C8.17499 7.92495 8.92499 8.44995 9.37499 9.19995H4.12499C4.57499 8.44995 5.32499 7.92495 6.22499 7.77495L6.74999 7.69995ZM12 0.199951C8.69999 0.199951 5.99999 2.89995 5.99999 6.19995V6.27495C3.89999 6.64995 2.24999 8.44995 2.24999 10.7H11.25C11.25 8.44995 9.59999 6.64995 7.49999 6.27495V6.19995C7.49999 3.72495 9.52499 1.69995 12 1.69995C14.475 1.69995 16.5 3.72495 16.5 6.19995V18.2H18V6.19995C18 2.89995 15.3 0.199951 12 0.199951ZM10.725 11.9C10.65 11.9 10.575 11.9 10.5 11.975C10.125 12.125 9.89999 12.575 10.05 12.95L10.575 13.625C10.65 13.925 10.95 14.15 11.25 14.15C11.325 14.15 11.4 14.15 11.475 14.075C11.85 13.925 12.075 13.475 11.925 13.1L11.4 12.425C11.325 12.05 11.025 11.9 10.725 11.9ZM2.77499 11.9C2.47499 11.9 2.17499 12.125 2.09999 12.425L1.57499 13.1C1.42499 13.475 1.64999 13.925 2.02499 14.075C2.09999 14.075 2.17499 14.15 2.24999 14.15C2.54999 14.15 2.84999 13.925 2.92499 13.625L3.44999 12.95C3.59999 12.575 3.37499 12.125 2.99999 11.975C2.92499 11.9 2.84999 11.9 2.77499 11.9ZM6.74999 12.2C6.29999 12.2 5.99999 12.5 5.99999 12.95V13.7C5.99999 14.15 6.29999 14.45 6.74999 14.45C7.19999 14.45 7.49999 14.15 7.49999 13.7V12.95C7.49999 12.575 7.19999 12.2 6.74999 12.2ZM12.225 15.35C12.15 15.35 12.075 15.35 12 15.425C11.625 15.575 11.4 16.025 11.55 16.4L11.775 17.075C11.85 17.375 12.15 17.6 12.45 17.6C12.525 17.6 12.6 17.6 12.675 17.525C13.05 17.375 13.275 16.9249 13.125 16.5499L12.9 15.875C12.825 15.575 12.525 15.35 12.225 15.35ZM1.27499 15.35C0.974988 15.35 0.674988 15.575 0.599988 15.875L0.374988 16.5499C0.224988 16.9249 0.449988 17.375 0.824988 17.525C0.899988 17.525 0.974988 17.6 1.04999 17.6C1.34999 17.6 1.64999 17.375 1.72499 17.075L1.94999 16.4C2.09999 16.025 1.87499 15.575 1.49999 15.425C1.42499 15.425 1.34999 15.35 1.27499 15.35ZM6.74999 15.95C6.29999 15.95 5.99999 16.25 5.99999 16.7V17.45C5.99999 17.9 6.29999 18.2 6.74999 18.2C7.19999 18.2 7.49999 17.9 7.49999 17.45V16.7C7.49999 16.325 7.19999 15.95 6.74999 15.95Z" fill="#2B59FF"/>
</g>
<defs>
<clipPath id="clip0_8_398">
<rect width="18" height="18" fill="white" transform="translate(0 0.199951)"/>
</clipPath>
</defs>
</svg>
