<svg width="18" height="19" viewBox="0 0 18 19" fill="none" xmlns="http://www.w3.org/2000/svg">
<g clip-path="url(#clip0_8_402)">
<path d="M3.3 17.45L0.75 14.9V14.15L3.75 12.65L6.75 14.15V14.9L4.2 17.45H3.3ZM13.95 6.94995L12.45 3.94995L13.95 0.949951H14.7L17.25 3.49995V4.39995L14.7 6.94995H13.95Z" fill="#E7F6FD"/>
<path d="M14.4 1.69995L16.5 3.79995V4.02495L14.4 6.19995L13.35 4.02495L13.275 3.94995L13.35 3.87495L14.4 1.69995ZM3.75 13.475L3.825 13.55L6 14.6L3.9 16.7H3.6L1.5 14.6L3.675 13.55L3.75 13.475ZM15 0.199951H13.5L12 3.19995H3V12.2L0 13.7V15.2L3 18.2H4.5L7.5 15.2V13.7L4.5 12.2V4.69995H12L13.5 7.69995H15L18 4.69995V3.19995L15 0.199951ZM18 7.69995H16.5V9.19995H18V7.69995ZM18 10.7H16.5V12.2H18V10.7ZM18 13.7H16.5V15.2H18V13.7ZM18 16.7H16.5V18.2H18V16.7ZM15 16.7H13.5V18.2H15V16.7ZM12 16.7H10.5V18.2H12V16.7ZM9 16.7H7.5V18.2H9V16.7Z" fill="#2B59FF"/>
</g>
<defs>
<clipPath id="clip0_8_402">
<rect width="18" height="18" fill="white" transform="translate(0 0.199951)"/>
</clipPath>
</defs>
</svg>
