<svg width="30" height="30" viewBox="0 0 30 30" fill="none" xmlns="http://www.w3.org/2000/svg">
<rect width="30" height="30" rx="15" fill="#EEEEEE"/>
<g clip-path="url(#clip0_246_996)">
<path d="M12.9432 16.8139C13.2023 16.6643 13.2911 16.333 13.1415 16.074C12.9919 15.8149 12.6606 15.7261 12.4016 15.8757L10.3412 17.0652C10.0822 17.2148 9.99339 17.5461 10.143 17.8051C10.2926 18.0642 10.6238 18.153 10.8829 18.0034L12.9432 16.8139ZM14.4582 12.3129C14.4582 12.6121 14.7007 12.8546 14.9999 12.8546C15.2991 12.8546 15.5416 12.6121 15.5416 12.3129V9.93388C15.5416 9.63473 15.299 9.39221 14.9999 9.39221C14.7007 9.39221 14.4582 9.63473 14.4582 9.93388V12.3129ZM16.8586 16.0737C17.0082 15.8146 17.3395 15.7258 17.5986 15.8754L19.6589 17.0649C19.918 17.2145 20.0067 17.5458 19.8572 17.8049C19.7076 18.0639 19.3763 18.1527 19.1172 18.0031L17.0569 16.8136C16.7978 16.664 16.7091 16.3328 16.8586 16.0737Z" fill="#1E1E1E"/>
<path fill-rule="evenodd" clip-rule="evenodd" d="M15.271 6.77704C15.1034 6.68028 14.8969 6.68028 14.7294 6.77704L8.02524 10.6477C7.94053 10.6937 7.86707 10.7629 7.81532 10.8525C7.76419 10.9411 7.74092 11.0381 7.74278 11.1334V18.8782C7.74278 19.0717 7.84601 19.2505 8.01361 19.3473L14.7294 23.2246C14.8969 23.3214 15.1034 23.3214 15.271 23.2246L21.9868 19.3473C22.1544 19.2505 22.2576 19.0717 22.2576 18.8782V11.1321C22.2592 11.0373 22.2359 10.9407 22.185 10.8525C22.1334 10.7631 22.0601 10.6939 21.9755 10.6479L15.271 6.77704ZM8.82611 18.5654V12.0616L14.4584 15.3134V21.8172L8.82611 18.5654ZM9.36784 11.1234L14.9634 14.354C14.9755 14.3532 14.9877 14.3528 15 14.3528C15.0124 14.3528 15.0248 14.3532 15.037 14.354L20.6325 11.1234L15.0002 7.87161L9.36784 11.1234ZM15.5417 21.8174V15.3135L21.1743 12.0616V18.5654L15.5417 21.8174Z" fill="#1E1E1E"/>
</g>
<defs>
<clipPath id="clip0_246_996">
<rect width="20" height="20" fill="white" transform="translate(5 5)"/>
</clipPath>
</defs>
</svg>
