<svg width="30" height="30" viewBox="0 0 30 30" fill="none" xmlns="http://www.w3.org/2000/svg">
<rect width="30" height="30" rx="15" fill="#EEEEEE"/>
<path d="M22.5 6.25H7.5C6.8125 6.25 6.25 6.8125 6.25 7.5V22.5C6.25 23.1875 6.8125 23.75 7.5 23.75H16.875V22.5C16.875 20.75 18.25 19.375 20 19.375V18.125C17.5625 18.125 15.625 20.0625 15.625 22.5H13.75V20H12.5V22.5H7.5V7.5H12.5V16.25H13.75V13.125H16.25V11.875H13.75V7.5H22.5V11.875H20V13.125H22.5V22.5H20V23.75H22.5C23.1875 23.75 23.75 23.1875 23.75 22.5V7.5C23.75 6.8125 23.1875 6.25 22.5 6.25Z" fill="#1E1E1E"/>
</svg>
