<svg width="30" height="30" viewBox="0 0 30 30" fill="none" xmlns="http://www.w3.org/2000/svg">
<rect x="-0.000488281" width="30" height="30" rx="15" fill="#EEEEEE"/>
<path d="M10.583 12.7167L14.9997 15.275L19.383 12.7333" stroke="#1E1E1E" stroke-width="1.5" stroke-linecap="round" stroke-linejoin="round"/>
<path d="M15 19.8084V15.2667" stroke="#1E1E1E" stroke-width="1.5" stroke-linecap="round" stroke-linejoin="round"/>
<path d="M10.1914 13.5834C10.1914 12.8917 10.6831 12.05 11.2914 11.7167L13.9581 10.2333C14.5247 9.91668 15.4581 9.91668 16.0331 10.2333L18.6997 11.7167C19.2997 12.05 19.7997 12.8917 19.7997 13.5834V16.4084C19.7997 17.1 19.3081 17.9417 18.6997 18.275L16.0331 19.7583C15.4664 20.075 14.5331 20.075 13.9581 19.7583L11.2914 18.275C10.9914 18.1084 10.7164 17.8167 10.5164 17.475" stroke="#1E1E1E" stroke-width="1.5" stroke-linecap="round" stroke-linejoin="round"/>
<path d="M23.3324 17.5C23.3324 20.725 20.724 23.3333 17.499 23.3333L18.374 21.875" stroke="#1E1E1E" stroke-width="1.5" stroke-linecap="round" stroke-linejoin="round"/>
<path d="M6.66602 12.5C6.66602 9.27496 9.27435 6.66663 12.4993 6.66663L11.6244 8.12496" stroke="#1E1E1E" stroke-width="1.5" stroke-linecap="round" stroke-linejoin="round"/>
</svg>
