<svg width="18" height="19" viewBox="0 0 18 19" fill="none" xmlns="http://www.w3.org/2000/svg">
<path opacity="0.2" d="M9.5625 8.63745V14.825H3.375V8.63745H9.5625Z" fill="#2B59FF"/>
<path d="M9.5625 8.07495H3.375C3.22582 8.07495 3.08274 8.13421 2.97725 8.2397C2.87176 8.34519 2.8125 8.48827 2.8125 8.63745V14.825C2.8125 14.9741 2.87176 15.1172 2.97725 15.2227C3.08274 15.3282 3.22582 15.3875 3.375 15.3875H9.5625C9.71168 15.3875 9.85476 15.3282 9.96025 15.2227C10.0657 15.1172 10.125 14.9741 10.125 14.825V8.63745C10.125 8.48827 10.0657 8.34519 9.96025 8.2397C9.85476 8.13421 9.71168 8.07495 9.5625 8.07495ZM9 14.2625H3.9375V9.19995H9V14.2625ZM15.1875 13.1375V14.2625C15.1875 14.5608 15.069 14.847 14.858 15.0579C14.647 15.2689 14.3609 15.3875 14.0625 15.3875H12.375C12.2258 15.3875 12.0827 15.3282 11.9773 15.2227C11.8718 15.1172 11.8125 14.9741 11.8125 14.825C11.8125 14.6758 11.8718 14.5327 11.9773 14.4272C12.0827 14.3217 12.2258 14.2625 12.375 14.2625H14.0625V13.1375C14.0625 12.9883 14.1218 12.8452 14.2273 12.7397C14.3327 12.6342 14.4758 12.575 14.625 12.575C14.7742 12.575 14.9173 12.6342 15.0227 12.7397C15.1282 12.8452 15.1875 12.9883 15.1875 13.1375ZM15.1875 8.07495V10.325C15.1875 10.4741 15.1282 10.6172 15.0227 10.7227C14.9173 10.8282 14.7742 10.8875 14.625 10.8875C14.4758 10.8875 14.3327 10.8282 14.2273 10.7227C14.1218 10.6172 14.0625 10.4741 14.0625 10.325V8.07495C14.0625 7.92577 14.1218 7.78269 14.2273 7.6772C14.3327 7.57171 14.4758 7.51245 14.625 7.51245C14.7742 7.51245 14.9173 7.57171 15.0227 7.6772C15.1282 7.78269 15.1875 7.92577 15.1875 8.07495ZM15.1875 4.13745V5.26245C15.1875 5.41164 15.1282 5.55471 15.0227 5.6602C14.9173 5.76569 14.7742 5.82495 14.625 5.82495C14.4758 5.82495 14.3327 5.76569 14.2273 5.6602C14.1218 5.55471 14.0625 5.41164 14.0625 5.26245V4.13745H12.9375C12.7883 4.13745 12.6452 4.07819 12.5398 3.9727C12.4343 3.86721 12.375 3.72414 12.375 3.57495C12.375 3.42577 12.4343 3.28269 12.5398 3.1772C12.6452 3.07171 12.7883 3.01245 12.9375 3.01245H14.0625C14.3609 3.01245 14.647 3.13098 14.858 3.34196C15.069 3.55293 15.1875 3.83908 15.1875 4.13745ZM10.6875 3.57495C10.6875 3.72414 10.6282 3.86721 10.5227 3.9727C10.4173 4.07819 10.2742 4.13745 10.125 4.13745H7.875C7.72582 4.13745 7.58274 4.07819 7.47725 3.9727C7.37176 3.86721 7.3125 3.72414 7.3125 3.57495C7.3125 3.42577 7.37176 3.28269 7.47725 3.1772C7.58274 3.07171 7.72582 3.01245 7.875 3.01245H10.125C10.2742 3.01245 10.4173 3.07171 10.5227 3.1772C10.6282 3.28269 10.6875 3.42577 10.6875 3.57495ZM2.8125 5.82495V4.13745C2.8125 3.83908 2.93103 3.55293 3.142 3.34196C3.35298 3.13098 3.63913 3.01245 3.9375 3.01245H5.0625C5.21168 3.01245 5.35476 3.07171 5.46025 3.1772C5.56574 3.28269 5.625 3.42577 5.625 3.57495C5.625 3.72414 5.56574 3.86721 5.46025 3.9727C5.35476 4.07819 5.21168 4.13745 5.0625 4.13745H3.9375V5.82495C3.9375 5.97414 3.87824 6.11721 3.77275 6.2227C3.66726 6.32819 3.52418 6.38745 3.375 6.38745C3.22582 6.38745 3.08274 6.32819 2.97725 6.2227C2.87176 6.11721 2.8125 5.97414 2.8125 5.82495Z" fill="#2B59FF"/>
</svg>
