<svg width="16" height="17" viewBox="0 0 16 17" fill="none" xmlns="http://www.w3.org/2000/svg">
<path d="M5.99967 15.4462H9.99967C13.333 15.4462 14.6663 14.1129 14.6663 10.7796V6.77958C14.6663 3.44625 13.333 2.11292 9.99967 2.11292H5.99967C2.66634 2.11292 1.33301 3.44625 1.33301 6.77958V10.7796C1.33301 14.1129 2.66634 15.4462 5.99967 15.4462Z" stroke="white" stroke-linecap="round" stroke-linejoin="round"/>
<path d="M6.00033 7.44621C6.73671 7.44621 7.33366 6.84925 7.33366 6.11287C7.33366 5.37649 6.73671 4.77954 6.00033 4.77954C5.26395 4.77954 4.66699 5.37649 4.66699 6.11287C4.66699 6.84925 5.26395 7.44621 6.00033 7.44621Z" stroke="white" stroke-linecap="round" stroke-linejoin="round"/>
<path d="M1.77979 13.4128L5.06645 11.2062C5.59312 10.8528 6.35312 10.8928 6.82645 11.2995L7.04645 11.4928C7.56645 11.9395 8.40645 11.9395 8.92645 11.4928L11.6998 9.11283C12.2198 8.66617 13.0598 8.66617 13.5798 9.11283L14.6665 10.0462" stroke="white" stroke-linecap="round" stroke-linejoin="round"/>
</svg>
