<svg width="40" height="40" viewBox="0 0 40 40" fill="none" xmlns="http://www.w3.org/2000/svg">
<g clip-path="url(#clip0_70_431)">
<path d="M38.6667 38.6667L28 28M17.3333 33.3334C15.2322 33.3334 13.1516 32.9195 11.2104 32.1154C9.2692 31.3114 7.50537 30.1328 6.01963 28.6471C4.5339 27.1613 3.35535 25.3975 2.55127 23.4563C1.7472 21.5151 1.33334 19.4345 1.33334 17.3334C1.33334 15.2322 1.7472 13.1516 2.55127 11.2104C3.35535 9.26923 4.5339 7.5054 6.01963 6.01967C7.50537 4.53393 9.2692 3.35538 11.2104 2.5513C13.1516 1.74723 15.2322 1.33337 17.3333 1.33337C21.5768 1.33337 25.6465 3.01908 28.647 6.01967C31.6476 9.02025 33.3333 13.0899 33.3333 17.3334C33.3333 21.5768 31.6476 25.6465 28.647 28.6471C25.6465 31.6477 21.5768 33.3334 17.3333 33.3334Z" stroke="black" stroke-width="1.5"/>
</g>
<defs>
<clipPath id="clip0_70_431">
<rect width="40" height="40" fill="white"/>
</clipPath>
</defs>
</svg>
