<svg width="40" height="40" viewBox="0 0 40 40" fill="none" xmlns="http://www.w3.org/2000/svg">
<path d="M5.01672 18.7V26.1833C5.01672 33.6666 8.01672 36.6666 15.5001 36.6666H24.4834C31.9667 36.6666 34.9667 33.6666 34.9667 26.1833V18.7" stroke="#1E1E1E" stroke-width="1.5" stroke-linecap="round" stroke-linejoin="round"/>
<path d="M20 19.9999C23.05 19.9999 25.3 17.5166 25 14.4666L23.9 3.33325H16.1166L15 14.4666C14.7 17.5166 16.95 19.9999 20 19.9999Z" stroke="#1E1E1E" stroke-width="1.5" stroke-linecap="round" stroke-linejoin="round"/>
<path d="M30.5166 19.9999C33.8833 19.9999 36.35 17.2666 36.0166 13.9166L35.55 9.33325C34.95 4.99992 33.2833 3.33325 28.9166 3.33325H23.8333L25 15.0166C25.2833 17.7666 27.7666 19.9999 30.5166 19.9999Z" stroke="#1E1E1E" stroke-width="1.5" stroke-linecap="round" stroke-linejoin="round"/>
<path d="M9.40005 19.9999C12.15 19.9999 14.6334 17.7666 14.9 15.0166L15.2667 11.3333L16.0667 3.33325H10.9834C6.61672 3.33325 4.95005 4.99992 4.35005 9.33325L3.90005 13.9166C3.56671 17.2666 6.03338 19.9999 9.40005 19.9999Z" stroke="#1E1E1E" stroke-width="1.5" stroke-linecap="round" stroke-linejoin="round"/>
<path d="M20 28.3333C17.2167 28.3333 15.8334 29.7166 15.8334 32.4999V36.6666H24.1667V32.4999C24.1667 29.7166 22.7834 28.3333 20 28.3333Z" stroke="#1E1E1E" stroke-width="1.5" stroke-linecap="round" stroke-linejoin="round"/>
</svg>
