<svg width="20" height="20" viewBox="0 0 20 20" fill="none" xmlns="http://www.w3.org/2000/svg">
<path d="M17.4913 14.9917L13.3746 10.875L11.608 12.6417L15.7246 16.7584C16.2163 17.25 17.008 17.25 17.4913 16.7584C17.9746 16.2667 17.9746 15.475 17.4913 14.9917ZM14.708 8.33338C16.3163 8.33338 17.6246 7.02505 17.6246 5.41671C17.6246 4.93338 17.4913 4.48338 17.283 4.08338L15.033 6.33338L13.7913 5.09171L16.0413 2.84171C15.6413 2.63338 15.1913 2.50005 14.708 2.50005C13.0996 2.50005 11.7913 3.80838 11.7913 5.41671C11.7913 5.75838 11.858 6.08338 11.9663 6.38338L10.4246 7.92505L8.9413 6.44171C9.01855 6.36462 9.07984 6.27304 9.12166 6.17223C9.16347 6.07142 9.185 5.96335 9.185 5.85421C9.185 5.74507 9.16347 5.637 9.12166 5.53619C9.07984 5.43538 9.01855 5.34381 8.9413 5.26671L8.34963 4.67505L10.1163 2.90838C9.64754 2.44021 9.01213 2.17725 8.34963 2.17725C7.68713 2.17725 7.05171 2.44021 6.58296 2.90838L4.23296 5.26671C4.15571 5.34381 4.09442 5.43538 4.0526 5.53619C4.01078 5.637 3.98926 5.74507 3.98926 5.85421C3.98926 5.96335 4.01078 6.07142 4.0526 6.17223C4.09442 6.27304 4.15571 6.36462 4.23296 6.44171L4.82463 7.03338H2.70796C2.54963 7.03338 2.39963 7.09171 2.2913 7.20838C2.23586 7.26269 2.19182 7.32752 2.16176 7.39907C2.1317 7.47061 2.11621 7.54744 2.11621 7.62505C2.11621 7.70265 2.1317 7.77948 2.16176 7.85103C2.19182 7.92257 2.23586 7.9874 2.2913 8.04171L4.40796 10.1584C4.46228 10.2138 4.5271 10.2579 4.59865 10.2879C4.6702 10.318 4.74702 10.3335 4.82463 10.3335C4.90224 10.3335 4.97906 10.318 5.05061 10.2879C5.12215 10.2579 5.18698 10.2138 5.2413 10.1584C5.34963 10.05 5.4163 9.90005 5.4163 9.74171V7.62505L5.99963 8.20838C6.32463 8.53338 6.84963 8.53338 7.17463 8.20838L8.65796 9.69171L3.3663 14.9834C3.24939 15.0989 3.15657 15.2364 3.09322 15.388C3.02987 15.5397 2.99725 15.7024 2.99725 15.8667C2.99725 16.031 3.02987 16.1937 3.09322 16.3454C3.15657 16.497 3.24939 16.6346 3.3663 16.75C3.85796 17.2417 4.64963 17.2417 5.13296 16.75L13.733 8.15838C14.0413 8.26671 14.3663 8.33338 14.708 8.33338Z" fill="#2B59FF"/>
</svg>
