<svg width="20" height="20" viewBox="0 0 20 20" fill="none" xmlns="http://www.w3.org/2000/svg">
<path d="M18.4604 9.74289L10.2462 1.88575C10.1797 1.82243 10.0915 1.78711 9.99973 1.78711C9.90797 1.78711 9.81972 1.82243 9.7533 1.88575L1.53902 9.74289C1.50112 9.77416 1.47008 9.81292 1.44785 9.85673C1.42561 9.90054 1.41266 9.94847 1.40979 9.99752C1.40692 10.0466 1.41421 10.0957 1.43118 10.1418C1.44816 10.1879 1.47447 10.23 1.50847 10.2655C1.54246 10.3009 1.58341 10.329 1.62875 10.3479C1.6741 10.3669 1.72285 10.3762 1.77198 10.3755C1.82111 10.3747 1.86954 10.3638 1.91426 10.3434C1.95898 10.3231 1.99902 10.2937 2.03187 10.2572L9.99973 2.63575L17.9676 10.2572C18.0345 10.3237 18.125 10.361 18.2194 10.361C18.3137 10.361 18.4042 10.3237 18.4712 10.2572C18.505 10.2231 18.5317 10.1826 18.5496 10.1381C18.5674 10.0935 18.5761 10.0458 18.5751 9.99776C18.5741 9.94975 18.5635 9.90243 18.5438 9.85864C18.524 9.81485 18.4957 9.77548 18.4604 9.74289Z" fill="#2B59FF"/>
<path d="M16.0713 10.3572C15.9766 10.3572 15.8857 10.3948 15.8188 10.4618C15.7518 10.5288 15.7141 10.6196 15.7141 10.7143V17.5H4.28557V10.7143C4.28557 10.6196 4.24795 10.5288 4.18097 10.4618C4.11399 10.3948 4.02315 10.3572 3.92843 10.3572C3.83371 10.3572 3.74287 10.3948 3.67589 10.4618C3.60892 10.5288 3.57129 10.6196 3.57129 10.7143V17.8572C3.57129 17.9519 3.60892 18.0427 3.67589 18.1097C3.74287 18.1767 3.83371 18.2143 3.92843 18.2143H16.0713C16.166 18.2143 16.2569 18.1767 16.3238 18.1097C16.3908 18.0427 16.4284 17.9519 16.4284 17.8572V10.7143C16.4284 10.6196 16.3908 10.5288 16.3238 10.4618C16.2569 10.3948 16.166 10.3572 16.0713 10.3572ZM13.5713 3.96788C13.666 3.96788 13.7569 3.93026 13.8238 3.86328C13.8908 3.7963 13.9284 3.70546 13.9284 3.61074V2.85717H15.357V6.07146C15.357 6.16618 15.3946 6.25702 15.4616 6.32399C15.5286 6.39097 15.6194 6.4286 15.7141 6.4286C15.8089 6.4286 15.8997 6.39097 15.9667 6.32399C16.0337 6.25702 16.0713 6.16618 16.0713 6.07146V2.50003C16.0713 2.40531 16.0337 2.31447 15.9667 2.24749C15.8997 2.18051 15.8089 2.14288 15.7141 2.14288H13.5713C13.4766 2.14288 13.3857 2.18051 13.3188 2.24749C13.2518 2.31447 13.2141 2.40531 13.2141 2.50003V3.61074C13.2141 3.70546 13.2518 3.7963 13.3188 3.86328C13.3857 3.93026 13.4766 3.96788 13.5713 3.96788Z" fill="#2B59FF"/>
</svg>
