<svg width="20" height="21" viewBox="0 0 20 21" fill="none" xmlns="http://www.w3.org/2000/svg">
<path d="M6.66675 2.16663V4.66663" stroke="#1E1E1E" stroke-miterlimit="10" stroke-linecap="round" stroke-linejoin="round"/>
<path d="M13.3333 2.16663V4.66663" stroke="#1E1E1E" stroke-miterlimit="10" stroke-linecap="round" stroke-linejoin="round"/>
<path d="M13.3333 3.41663C16.1083 3.56663 17.5 4.62496 17.5 8.54163V13.6916C17.5 17.125 16.6667 18.8416 12.5 18.8416H7.5C3.33333 18.8416 2.5 17.125 2.5 13.6916V8.54163C2.5 4.62496 3.89167 3.57496 6.66667 3.41663H13.3333Z" stroke="#1E1E1E" stroke-miterlimit="10" stroke-linecap="round" stroke-linejoin="round"/>
<path d="M17.2916 15.1666H2.70825" stroke="#1E1E1E" stroke-miterlimit="10" stroke-linecap="round" stroke-linejoin="round"/>
<path d="M10.0001 7.375C8.97508 7.375 8.10841 7.93333 8.10841 9.01667C8.10841 9.53333 8.35008 9.925 8.71675 10.175C8.20841 10.475 7.91675 10.9583 7.91675 11.525C7.91675 12.5583 8.70841 13.2 10.0001 13.2C11.2834 13.2 12.0834 12.5583 12.0834 11.525C12.0834 10.9583 11.7917 10.4667 11.2751 10.175C11.6501 9.91667 11.8834 9.53333 11.8834 9.01667C11.8834 7.93333 11.0251 7.375 10.0001 7.375ZM10.0001 9.74167C9.56675 9.74167 9.25008 9.48333 9.25008 9.075C9.25008 8.65833 9.56675 8.41667 10.0001 8.41667C10.4334 8.41667 10.7501 8.65833 10.7501 9.075C10.7501 9.48333 10.4334 9.74167 10.0001 9.74167ZM10.0001 12.1667C9.45008 12.1667 9.05008 11.8917 9.05008 11.3917C9.05008 10.8917 9.45008 10.625 10.0001 10.625C10.5501 10.625 10.9501 10.9 10.9501 11.3917C10.9501 11.8917 10.5501 12.1667 10.0001 12.1667Z" fill="#1E1E1E"/>
</svg>
