<svg width="20" height="20" viewBox="0 0 20 20" fill="none" xmlns="http://www.w3.org/2000/svg">
<g clip-path="url(#clip0_246_671)">
<g clip-path="url(#clip1_246_671)">
<path d="M17.402 10.6953C17.5367 10.9297 17.6715 11.166 17.8082 11.4004C17.8961 11.5547 17.986 11.707 18.0738 11.8613C18.1246 11.9511 18.1813 12.039 18.2223 12.1347L18.1637 11.9941C18.1891 12.0605 18.2067 12.1269 18.2164 12.1972C18.2086 12.1445 18.2027 12.0937 18.1949 12.041C18.2027 12.1093 18.2027 12.1777 18.193 12.2461C18.2008 12.1933 18.2067 12.1425 18.2145 12.0898C18.2047 12.1582 18.1871 12.2226 18.1617 12.2871L18.2203 12.1464C18.2145 12.1621 18.152 12.3066 18.1344 12.3047C18.1285 12.3027 18.2223 12.1992 18.1871 12.2382C18.1754 12.25 18.1637 12.2656 18.152 12.2773C18.1305 12.2988 18.0367 12.3769 18.1227 12.3105C18.2067 12.2461 18.1149 12.3125 18.0875 12.3281C18.0777 12.3339 18.068 12.3398 18.0582 12.3437C17.9547 12.4043 17.8512 12.4629 17.7496 12.5214C17.4586 12.6894 17.1656 12.8574 16.8746 13.0254C16.7457 13.0996 16.6266 13.1738 16.5113 13.2734C16.2184 13.5254 16.0602 13.9179 16.0543 14.3007C16.0504 14.5468 16.0543 14.7949 16.0543 15.041V15.6172C16.0543 15.7265 16.0602 15.8379 16.0465 15.9453C16.0543 15.8925 16.0602 15.8418 16.068 15.789C16.0582 15.8574 16.0406 15.9238 16.0152 15.9882L16.0738 15.8476C16.0543 15.8945 16.0289 15.9375 16.0035 15.9824C15.9586 16.0586 16.0895 15.8886 16.0426 15.9336C16.025 15.9511 16.0094 15.9707 15.9918 15.9882C15.9762 16.0039 15.9606 16.0156 15.9449 16.0312C15.8746 16.0976 16.068 15.9531 15.984 16C15.9391 16.0254 15.8981 16.0507 15.8492 16.0703L15.9899 16.0117C15.9254 16.0371 15.859 16.0547 15.7906 16.0644C15.8434 16.0566 15.8942 16.0507 15.9469 16.0429C15.6988 16.0722 15.4371 16.0507 15.1871 16.0507C14.8981 16.0507 14.611 16.0488 14.3219 16.0507C13.7828 16.0527 13.3336 16.3418 13.068 16.8027C12.9098 17.0781 12.7516 17.3535 12.5914 17.6289C12.5133 17.7636 12.4371 17.8984 12.359 18.0312C12.3414 18.0605 12.3258 18.0918 12.3063 18.1211C12.2418 18.2226 12.3981 18.0195 12.316 18.1093C12.2926 18.1347 12.2652 18.1582 12.2399 18.1816C12.2027 18.2168 12.3063 18.123 12.3063 18.1289C12.3063 18.1328 12.2594 18.1601 12.2516 18.164C12.2184 18.1836 12.1832 18.2011 12.1481 18.2148L12.2887 18.1562C12.2242 18.1816 12.1598 18.1992 12.0914 18.2089C12.1442 18.2011 12.1949 18.1953 12.2477 18.1875C12.1793 18.1953 12.111 18.1953 12.0426 18.1894C12.0953 18.1972 12.1461 18.2031 12.1988 18.2109C12.1285 18.2011 12.0621 18.1836 11.9957 18.1582L12.1363 18.2168C11.9254 18.1269 11.7262 17.9882 11.527 17.875C11.2711 17.7285 11.0152 17.58 10.7594 17.4336C10.5758 17.3281 10.3863 17.2558 10.1754 17.2265C9.86486 17.1855 9.56017 17.2539 9.28673 17.4082C9.05431 17.541 8.82384 17.6738 8.59337 17.8066C8.35509 17.9433 8.11876 18.1074 7.86681 18.2168L8.00744 18.1582C7.94103 18.1836 7.87462 18.2011 7.80431 18.2109C7.85705 18.2031 7.90783 18.1972 7.96056 18.1894C7.8922 18.1972 7.82384 18.1972 7.75548 18.1875C7.80822 18.1953 7.859 18.2011 7.91173 18.2089C7.84337 18.1992 7.77892 18.1816 7.71447 18.1562L7.85509 18.2148C7.83947 18.2089 7.69494 18.1464 7.69689 18.1289C7.69884 18.123 7.80236 18.2168 7.7633 18.1816C7.74962 18.1699 7.73595 18.1582 7.72423 18.1464C7.70275 18.125 7.62462 18.0312 7.69103 18.1171C7.75548 18.2011 7.68908 18.1093 7.67345 18.082C7.66759 18.0722 7.66173 18.0625 7.65783 18.0527C7.59728 17.9492 7.53869 17.8457 7.48009 17.7441L6.97619 16.8711C6.90197 16.7422 6.82775 16.623 6.72814 16.5078C6.47619 16.2148 6.08361 16.0566 5.7008 16.0507C5.4547 16.0468 5.20666 16.0507 4.96056 16.0507H4.38439C4.27501 16.0507 4.16369 16.0566 4.05626 16.0429C4.109 16.0507 4.15978 16.0566 4.21251 16.0644C4.14415 16.0547 4.07775 16.0371 4.0133 16.0117L4.15392 16.0703C4.10705 16.0507 4.06408 16.0254 4.01916 16C3.94298 15.955 4.11291 16.0859 4.06798 16.039C4.05041 16.0214 4.03087 16.0058 4.0133 15.9882C3.99767 15.9726 3.98595 15.957 3.97033 15.9414C3.90392 15.8711 4.04845 16.0644 4.00158 15.9804C3.97619 15.9355 3.9508 15.8945 3.93126 15.8457L3.98986 15.9863C3.96447 15.9218 3.94689 15.8554 3.93712 15.7871C3.94494 15.8398 3.9508 15.8906 3.95861 15.9433C3.92931 15.6953 3.9508 15.4336 3.9508 15.1836C3.9508 14.8945 3.95275 14.6074 3.9508 14.3183C3.94884 13.7793 3.65978 13.33 3.19884 13.0644C2.92345 12.9062 2.64806 12.748 2.37267 12.5879C2.2379 12.5097 2.10314 12.4336 1.97033 12.3554C1.94103 12.3379 1.90978 12.3222 1.88048 12.3027C1.77892 12.2382 1.98205 12.3945 1.8922 12.3125C1.86681 12.289 1.84337 12.2617 1.81994 12.2363C1.78478 12.1992 1.87853 12.3027 1.87267 12.3027C1.86876 12.3027 1.84142 12.2558 1.83751 12.248C1.81798 12.2148 1.8004 12.1797 1.78673 12.1445L1.84533 12.2851C1.81994 12.2207 1.80236 12.1562 1.79259 12.0879C1.8004 12.1406 1.80626 12.1914 1.81408 12.2441C1.80626 12.1757 1.80626 12.1074 1.81212 12.039C1.80431 12.0918 1.79845 12.1425 1.79064 12.1953C1.8004 12.125 1.81798 12.0586 1.84337 11.9922L1.78478 12.1328C1.87462 11.9218 2.0133 11.7226 2.12658 11.5234C2.27306 11.2675 2.4215 11.0117 2.56798 10.7558C2.67345 10.5722 2.74572 10.3828 2.77501 10.1718C2.81603 9.86129 2.74767 9.5566 2.59337 9.28317C2.46056 9.05074 2.32775 8.82028 2.19494 8.58981C2.05822 8.35153 1.89415 8.1152 1.78478 7.86324L1.84337 8.00387C1.81798 7.93746 1.8004 7.87106 1.79064 7.80074C1.79845 7.85348 1.80431 7.90426 1.81212 7.95699C1.80431 7.88864 1.80431 7.82028 1.81408 7.75192C1.80626 7.80465 1.8004 7.85543 1.79259 7.90817C1.80236 7.83981 1.81994 7.77535 1.84533 7.7109L1.78673 7.85153C1.79259 7.8359 1.85509 7.69137 1.87267 7.69332C1.87853 7.69528 1.78478 7.79879 1.81994 7.75973C1.83165 7.74606 1.84337 7.73239 1.85509 7.72067C1.87658 7.69918 1.97033 7.62106 1.88439 7.68746C1.8004 7.75192 1.8922 7.68551 1.91955 7.66989C1.92931 7.66403 1.93908 7.65817 1.94884 7.65426C2.05236 7.59371 2.15587 7.53512 2.25744 7.47653L3.13048 6.97262C3.25939 6.8984 3.37853 6.82418 3.49376 6.72457C3.78673 6.47262 3.94494 6.08004 3.9508 5.69723C3.9547 5.45114 3.9508 5.20309 3.9508 4.95699V4.38082C3.9508 4.27145 3.94494 4.16012 3.95861 4.0527C3.9508 4.10543 3.94494 4.15621 3.93712 4.20895C3.94689 4.14059 3.96447 4.07418 3.98986 4.00973L3.93126 4.15035C3.9508 4.10348 3.97619 4.06051 4.00158 4.01559C4.0465 3.93942 3.91564 4.10934 3.96251 4.06442C3.98009 4.04684 3.99572 4.02731 4.0133 4.00973C4.02892 3.9941 4.04455 3.98239 4.06017 3.96676C4.13048 3.90035 3.93712 4.04489 4.02111 3.99801C4.06603 3.97262 4.10705 3.94723 4.15587 3.9277L4.01525 3.98629C4.0797 3.9609 4.14611 3.94332 4.21447 3.93356C4.16173 3.94137 4.11095 3.94723 4.05822 3.95504C4.30626 3.92574 4.56798 3.94723 4.81798 3.94723C5.10705 3.94723 5.39416 3.94918 5.68322 3.94723C6.22228 3.94528 6.6715 3.65621 6.93712 3.19528C7.09533 2.91989 7.25353 2.64449 7.41369 2.3691C7.49181 2.23434 7.56798 2.09957 7.64611 1.96676C7.66369 1.93746 7.67931 1.90621 7.69884 1.87692C7.7633 1.77535 7.60705 1.97848 7.68908 1.88864C7.71251 1.86324 7.73986 1.83981 7.76525 1.81637C7.80236 1.78121 7.69884 1.87496 7.69884 1.8691C7.69884 1.8652 7.74572 1.83785 7.75353 1.83395C7.78673 1.81442 7.82189 1.79684 7.85705 1.78317L7.71642 1.84176C7.78087 1.81637 7.84533 1.79879 7.91369 1.78903C7.86095 1.79684 7.81017 1.8027 7.75744 1.81051C7.8258 1.8027 7.89416 1.8027 7.96251 1.80856C7.90978 1.80074 7.859 1.79489 7.80626 1.78707C7.87658 1.79684 7.94298 1.81442 8.00939 1.83981L7.86876 1.78121C8.0797 1.87106 8.27892 2.00973 8.47814 2.12301C8.734 2.26949 8.98986 2.41793 9.24572 2.56442C9.42931 2.66989 9.61876 2.74215 9.8297 2.77145C10.1402 2.81246 10.4449 2.7441 10.7184 2.58981C10.9508 2.45699 11.1813 2.32418 11.4117 2.19137C11.65 2.05465 11.8863 1.89059 12.1383 1.78121L11.9977 1.83981C12.0641 1.81442 12.1305 1.79684 12.2008 1.78707C12.1481 1.79489 12.0973 1.80074 12.0445 1.80856C12.1129 1.80074 12.1813 1.80074 12.2496 1.81051C12.1969 1.8027 12.1461 1.79684 12.0934 1.78903C12.1617 1.79879 12.2262 1.81637 12.2906 1.84176L12.15 1.78317C12.1656 1.78903 12.3102 1.85153 12.3082 1.8691C12.3063 1.87496 12.2027 1.78121 12.2418 1.81637C12.2555 1.82809 12.2692 1.83981 12.2809 1.85153C12.3024 1.87301 12.3805 1.96676 12.3141 1.88082C12.2496 1.79684 12.316 1.88864 12.3317 1.91598C12.3375 1.92574 12.3434 1.93551 12.3473 1.94528C12.4078 2.04879 12.4664 2.15231 12.525 2.25387L13.0289 3.12692C13.1031 3.25582 13.1774 3.37496 13.277 3.4902C13.5289 3.78317 13.9215 3.94137 14.3043 3.94723C14.5504 3.95114 14.7985 3.94723 15.0445 3.94723H15.6207C15.7301 3.94723 15.8414 3.94137 15.9488 3.95504C15.8961 3.94723 15.8453 3.94137 15.7926 3.93356C15.861 3.94332 15.9274 3.9609 15.9918 3.98629L15.8512 3.9277C15.8981 3.94723 15.941 3.97262 15.986 3.99801C16.0621 4.04293 15.8922 3.91207 15.9371 3.95895C15.9547 3.97653 15.9742 3.99215 15.9918 4.00973C16.0074 4.02535 16.0192 4.04098 16.0348 4.0566C16.1012 4.12692 15.9567 3.93356 16.0035 4.01754C16.0289 4.06246 16.0543 4.10348 16.0738 4.15231L16.0152 4.01168C16.0406 4.07613 16.0582 4.14254 16.068 4.2109C16.0602 4.15817 16.0543 4.10739 16.0465 4.05465C16.0758 4.3027 16.0543 4.56442 16.0543 4.81442C16.0543 5.10348 16.0524 5.39059 16.0543 5.67965C16.0563 6.21871 16.3453 6.66793 16.8063 6.93356C17.0817 7.09176 17.357 7.24996 17.6324 7.41012C17.7672 7.48824 17.902 7.56442 18.0348 7.64254C18.0641 7.66012 18.0953 7.67574 18.1246 7.69528C18.2262 7.75973 18.0231 7.60348 18.1129 7.68551C18.1383 7.70895 18.1617 7.73629 18.1852 7.76168C18.2203 7.79879 18.1266 7.69528 18.1324 7.69528C18.1363 7.69528 18.1637 7.74215 18.1676 7.74996C18.1871 7.78317 18.2047 7.81832 18.2184 7.85348L18.1598 7.71285C18.1852 7.77731 18.2027 7.84176 18.2125 7.91012C18.2047 7.85739 18.1988 7.8066 18.191 7.75387C18.1988 7.82223 18.1988 7.89059 18.193 7.95895C18.2008 7.90621 18.2067 7.85543 18.2145 7.8027C18.2047 7.87301 18.1871 7.93942 18.1617 8.00582L18.2203 7.8652C18.1168 8.10934 17.9567 8.33785 17.8258 8.56637C17.6852 8.81051 17.5406 9.05465 17.4039 9.30075C17.1598 9.7402 17.1598 10.2539 17.402 10.6953C17.5504 10.9648 17.943 11.0742 18.2027 10.9062C18.4762 10.7304 18.5699 10.3925 18.4137 10.1054C18.3981 10.0761 18.3844 10.0488 18.3707 10.0175L18.4293 10.1582C18.402 10.0879 18.3824 10.0175 18.3727 9.94137C18.3805 9.9941 18.3863 10.0449 18.3942 10.0976C18.3883 10.0332 18.3883 9.97067 18.3942 9.90621C18.3863 9.95895 18.3805 10.0097 18.3727 10.0625C18.3824 9.98629 18.402 9.91598 18.4293 9.84567L18.3707 9.98629C18.484 9.73238 18.6481 9.4941 18.7848 9.25387C18.9176 9.02145 19.0543 8.79098 19.1852 8.55856C19.5582 7.88864 19.3317 7.04488 18.6676 6.65621C18.4039 6.50192 18.1383 6.35153 17.8746 6.19918C17.7203 6.11129 17.568 6.02145 17.4137 5.93356C17.3883 5.91793 17.361 5.90426 17.3356 5.88864C17.3121 5.87496 17.2184 5.8066 17.3004 5.87106C17.3863 5.93746 17.277 5.84176 17.2574 5.82223C17.2262 5.79098 17.2164 5.74215 17.2965 5.87692C17.2867 5.86129 17.275 5.84567 17.2652 5.83199C17.2399 5.79293 17.2203 5.75192 17.2027 5.70895L17.2613 5.84957C17.2379 5.78903 17.2203 5.72653 17.2106 5.66207C17.2184 5.71481 17.2242 5.76559 17.232 5.81832C17.1988 5.55856 17.2242 5.28317 17.2242 5.0234C17.2242 4.74215 17.2262 4.45895 17.2242 4.1777C17.2203 3.82809 17.0973 3.52145 16.8766 3.25387C16.6344 2.9609 16.2633 2.80856 15.8922 2.78512C15.6363 2.76754 15.3746 2.78317 15.1168 2.78317H14.5367C14.4215 2.78317 14.3024 2.78903 14.1871 2.77535C14.2399 2.78317 14.2906 2.78903 14.3434 2.79684C14.2789 2.78707 14.2164 2.76949 14.1559 2.74606L14.2965 2.80465C14.2633 2.79098 14.2301 2.77535 14.1969 2.75582C14.1735 2.74215 14.0777 2.67184 14.1656 2.7402C14.2496 2.80465 14.1617 2.73239 14.1422 2.71285C14.1402 2.7109 14.1051 2.67965 14.1051 2.67184C14.107 2.68746 14.1949 2.79879 14.1383 2.7109C14.1207 2.68356 14.1051 2.65621 14.0895 2.62692C14.0192 2.50582 13.9508 2.38473 13.8805 2.26364C13.7125 1.97067 13.5426 1.67965 13.3746 1.38668C13.2516 1.17379 13.0953 0.996057 12.8902 0.857385C12.568 0.642542 12.1324 0.581995 11.7613 0.69137C11.4527 0.783167 11.1637 0.988245 10.8863 1.1484C10.7027 1.25387 10.5211 1.35934 10.3375 1.46481C10.232 1.52535 10.1285 1.59176 10.0172 1.64254L10.1578 1.58395C10.0875 1.61129 10.0172 1.63082 9.94103 1.64059C9.99376 1.63278 10.0445 1.62692 10.0973 1.6191C10.0328 1.62496 9.97033 1.62496 9.90587 1.6191C9.95861 1.62692 10.0094 1.63278 10.0621 1.64059C9.98595 1.63082 9.91564 1.61129 9.84533 1.58395L9.98595 1.64254C9.73205 1.52926 9.49376 1.3652 9.25353 1.22653C9.01915 1.08199 8.78869 0.945276 8.55431 0.814416C7.88439 0.44137 7.03869 0.667932 6.65197 1.33199C6.49767 1.59567 6.34728 1.86129 6.19494 2.12496C6.10705 2.27926 6.0172 2.4316 5.92931 2.5859C5.91369 2.61129 5.90001 2.63864 5.88439 2.66403C5.87072 2.68746 5.80236 2.78121 5.86681 2.69918C5.93322 2.61324 5.83751 2.72262 5.81798 2.74215C5.78673 2.7734 5.73791 2.78317 5.87267 2.70309C5.85705 2.71285 5.84142 2.72457 5.82775 2.73434C5.78869 2.75973 5.74767 2.77926 5.7047 2.79684L5.84533 2.73824C5.78478 2.76168 5.72228 2.77926 5.65783 2.78903C5.71056 2.78121 5.76134 2.77535 5.81408 2.76754C5.55431 2.80074 5.27892 2.77535 5.01916 2.77535C4.73791 2.77535 4.4547 2.7734 4.17345 2.77535C3.82384 2.77926 3.5172 2.90231 3.24962 3.12301C2.95665 3.3652 2.80431 3.73629 2.78087 4.10739C2.7633 4.36324 2.77892 4.62496 2.77892 4.88278V5.46285C2.77892 5.57809 2.78478 5.69723 2.77111 5.81246C2.77892 5.75973 2.78478 5.70895 2.79259 5.65621C2.78283 5.72067 2.76525 5.78317 2.74181 5.84371L2.8004 5.70309C2.78673 5.73629 2.77111 5.76949 2.75158 5.8027C2.7379 5.82614 2.66759 5.92184 2.73595 5.83395C2.8004 5.74996 2.72814 5.83785 2.70861 5.85739C2.70665 5.85934 2.6754 5.89449 2.66759 5.89449C2.68322 5.89254 2.79455 5.80465 2.70665 5.86129C2.67931 5.87887 2.65197 5.89449 2.62267 5.91012C2.50158 5.98043 2.38048 6.04879 2.25939 6.1191C1.96642 6.28707 1.6754 6.45699 1.38244 6.62496C1.16955 6.74801 0.991811 6.90426 0.853139 7.10934C0.638295 7.4316 0.577749 7.86715 0.687124 8.23824C0.77892 8.54684 0.983999 8.8359 1.14415 9.11325C1.24962 9.29684 1.35509 9.47848 1.46056 9.66207C1.52111 9.76754 1.58751 9.87106 1.6383 9.98239L1.5797 9.84176C1.60705 9.91207 1.62658 9.98238 1.63634 10.0586C1.62853 10.0058 1.62267 9.95504 1.61486 9.90231C1.62072 9.96676 1.62072 10.0293 1.61486 10.0937C1.62267 10.041 1.62853 9.9902 1.63634 9.93746C1.62658 10.0136 1.60705 10.0839 1.5797 10.1543L1.6383 10.0136C1.52501 10.2675 1.36095 10.5058 1.22228 10.7461C1.08165 10.9804 0.944936 11.2109 0.814077 11.4453C0.44103 12.1152 0.667592 12.9609 1.33165 13.3476C1.59533 13.5019 1.86095 13.6523 2.12462 13.8047C2.27892 13.8925 2.43126 13.9824 2.58556 14.0703C2.61095 14.0859 2.6383 14.0996 2.66369 14.1152C2.68712 14.1289 2.78087 14.1972 2.69884 14.1328C2.6129 14.0664 2.72228 14.1621 2.74181 14.1816C2.77306 14.2129 2.78283 14.2617 2.70275 14.1269C2.71251 14.1425 2.72423 14.1582 2.734 14.1718C2.75939 14.2109 2.77892 14.2519 2.7965 14.2949L2.7379 14.1543C2.76134 14.2148 2.77892 14.2773 2.78869 14.3418C2.78087 14.289 2.77501 14.2382 2.7672 14.1855C2.8004 14.4453 2.77501 14.7207 2.77501 14.9804C2.77501 15.2617 2.77306 15.5449 2.77501 15.8261C2.77892 16.1757 2.90197 16.4824 3.12267 16.75C3.36486 17.0429 3.73595 17.1953 4.10705 17.2187C4.36291 17.2363 4.62462 17.2207 4.88244 17.2207H5.46251C5.57775 17.2207 5.69689 17.2148 5.81212 17.2285C5.75939 17.2207 5.70861 17.2148 5.65587 17.207C5.72033 17.2168 5.78283 17.2343 5.84337 17.2578L5.70275 17.1992C5.73595 17.2129 5.76916 17.2285 5.80236 17.248C5.8258 17.2617 5.9215 17.332 5.83361 17.2636C5.74962 17.1992 5.83751 17.2714 5.85705 17.291C5.859 17.2929 5.89415 17.3242 5.89415 17.332C5.8922 17.3164 5.80431 17.205 5.86095 17.2929C5.87853 17.3203 5.89416 17.3476 5.90978 17.3769C5.98009 17.498 6.04845 17.6191 6.11876 17.7402C6.28673 18.0332 6.45666 18.3242 6.62462 18.6172C6.74767 18.83 6.90392 19.0078 7.109 19.1464C7.43126 19.3613 7.86681 19.4218 8.2379 19.3125C8.5465 19.2207 8.83556 19.0156 9.11291 18.8554C9.2965 18.75 9.47814 18.6445 9.66173 18.539C9.7672 18.4785 9.87072 18.4121 9.98205 18.3613L9.84142 18.4199C9.91173 18.3925 9.98205 18.373 10.0582 18.3632C10.0055 18.3711 9.9547 18.3769 9.90197 18.3847C9.96642 18.3789 10.0289 18.3789 10.0934 18.3847C10.0406 18.3769 9.98986 18.3711 9.93712 18.3632C10.0133 18.373 10.0836 18.3925 10.1539 18.4199L10.0133 18.3613C10.2672 18.4746 10.5055 18.6386 10.7457 18.7773C10.9781 18.9101 11.2086 19.0488 11.441 19.1777C12.111 19.5507 12.9567 19.3242 13.3434 18.6601C13.4977 18.3964 13.6481 18.1308 13.8004 17.8672C13.8883 17.7129 13.9781 17.5605 14.066 17.4062C14.0817 17.3808 14.0953 17.3535 14.111 17.3281C14.1246 17.3047 14.193 17.2109 14.1285 17.2929C14.0621 17.3789 14.1578 17.2695 14.1774 17.25C14.2086 17.2187 14.2574 17.2089 14.1227 17.289C14.1383 17.2793 14.1539 17.2675 14.1676 17.2578C14.2067 17.2324 14.2477 17.2129 14.2906 17.1953L14.15 17.2539C14.2106 17.2304 14.2731 17.2129 14.3375 17.2031C14.2848 17.2109 14.234 17.2168 14.1813 17.2246C14.441 17.1914 14.7164 17.2168 14.9762 17.2168C15.2574 17.2168 15.5406 17.2187 15.8219 17.2168C16.1715 17.2129 16.4781 17.0898 16.7457 16.8691C17.0387 16.6269 17.191 16.2558 17.2145 15.8847C17.232 15.6289 17.2164 15.3672 17.2164 15.1093V14.5293C17.2164 14.414 17.2106 14.2949 17.2242 14.1797C17.2164 14.2324 17.2106 14.2832 17.2027 14.3359C17.2125 14.2714 17.2301 14.2089 17.2535 14.1484L17.1949 14.289C17.2086 14.2558 17.2242 14.2226 17.2438 14.1894C17.2574 14.1679 17.3277 14.0703 17.2594 14.1582C17.1949 14.2422 17.2672 14.1543 17.2867 14.1347C17.2945 14.1289 17.3277 14.1035 17.3277 14.0976C17.3258 14.1074 17.2086 14.1797 17.277 14.1386C17.3082 14.1191 17.3395 14.0996 17.3727 14.082C17.4918 14.0136 17.609 13.9453 17.7281 13.8769C18.0211 13.7089 18.3141 13.539 18.6051 13.3711C18.8102 13.2519 18.9781 13.1054 19.1188 12.914C19.3512 12.5976 19.4098 12.1679 19.318 11.791C19.2438 11.4824 19.027 11.1836 18.8707 10.9121L18.402 10.0976C18.2496 9.83199 17.8649 9.71676 17.6012 9.88668C17.3434 10.0664 17.2379 10.4101 17.402 10.6953Z" fill="#2B59FF"/>
<path d="M12.7073 6.46488L12.0862 7.08598L10.5959 8.57621L8.79321 10.3789L7.23462 11.9375C6.98267 12.1895 6.7229 12.4395 6.47486 12.6973L6.46314 12.709C6.24634 12.9258 6.23071 13.3243 6.46314 13.5371C6.69751 13.752 7.06079 13.7696 7.29126 13.5371L7.91236 12.9161L9.40259 11.4258L11.2053 9.62309L12.7639 8.06449C13.0159 7.81254 13.2756 7.56254 13.5237 7.30473L13.5354 7.29301C13.7522 7.07621 13.7678 6.67777 13.5354 6.46488C13.303 6.25004 12.9397 6.23246 12.7073 6.46488ZM8.09986 8.09965C8.07251 8.12699 8.04517 8.15043 8.01587 8.17582C7.94165 8.24223 8.14673 8.08598 8.02368 8.16801C7.96314 8.20902 7.89868 8.24223 7.83228 8.27152L7.9729 8.21293C7.86548 8.25785 7.75415 8.2891 7.63892 8.30473C7.69165 8.29692 7.74243 8.29106 7.79517 8.28324C7.6897 8.29496 7.58423 8.29496 7.47681 8.28324C7.52954 8.29106 7.58032 8.29692 7.63306 8.30473C7.51782 8.2891 7.4065 8.25785 7.29907 8.21293L7.4397 8.27152C7.37329 8.24223 7.30884 8.20902 7.24829 8.16801C7.12525 8.08598 7.32837 8.24223 7.25611 8.17582C7.22876 8.15043 7.19946 8.12699 7.17212 8.09965C7.14478 8.07231 7.12134 8.04496 7.09595 8.01566C7.02954 7.94145 7.18579 8.14652 7.10376 8.02348C7.06275 7.96293 7.02954 7.89848 7.00025 7.83207L7.05884 7.9727C7.01392 7.86527 6.98267 7.75395 6.96704 7.63871C6.97486 7.69145 6.98071 7.74223 6.98853 7.79496C6.97681 7.68949 6.97681 7.58402 6.98853 7.4766C6.98071 7.52934 6.97486 7.58012 6.96704 7.63285C6.98267 7.51762 7.01392 7.40629 7.05884 7.29887L7.00025 7.43949C7.02954 7.37309 7.06275 7.30863 7.10376 7.24809C7.18579 7.12504 7.02954 7.32816 7.09595 7.2559C7.12134 7.22856 7.14478 7.19926 7.17212 7.17192C7.19946 7.14457 7.22681 7.12113 7.25611 7.09574C7.33032 7.02934 7.12525 7.18559 7.24829 7.10356C7.30884 7.06254 7.37329 7.02934 7.4397 7.00004L7.29907 7.05863C7.4065 7.01371 7.51782 6.98246 7.63306 6.96684C7.58032 6.97465 7.52954 6.98051 7.47681 6.98832C7.58228 6.9766 7.68775 6.9766 7.79517 6.98832C7.74243 6.98051 7.69165 6.97465 7.63892 6.96684C7.75415 6.98246 7.86548 7.01371 7.9729 7.05863L7.83228 7.00004C7.89868 7.02934 7.96314 7.06254 8.02368 7.10356C8.14673 7.18559 7.94361 7.02934 8.01587 7.09574C8.04321 7.12113 8.07251 7.14457 8.09986 7.17192C8.1272 7.19926 8.15064 7.2266 8.17603 7.2559C8.24243 7.33012 8.08618 7.12504 8.16821 7.24809C8.20923 7.30863 8.24243 7.37309 8.27173 7.43949L8.21314 7.29887C8.25806 7.40629 8.28931 7.51762 8.30493 7.63285C8.29712 7.58012 8.29126 7.52934 8.28345 7.4766C8.29517 7.58207 8.29517 7.68754 8.28345 7.79496C8.29126 7.74223 8.29712 7.69145 8.30493 7.63871C8.28931 7.75395 8.25806 7.86527 8.21314 7.9727L8.27173 7.83207C8.24243 7.89848 8.20923 7.96293 8.16821 8.02348C8.08618 8.14652 8.24243 7.9434 8.17603 8.01566C8.15064 8.04496 8.1272 8.07231 8.09986 8.09965C7.88501 8.3184 7.86548 8.71293 8.09986 8.92777C8.33228 9.14067 8.69946 9.16215 8.92798 8.92777C9.17603 8.67387 9.37134 8.33988 9.42798 7.98637C9.49439 7.57816 9.44751 7.19535 9.27173 6.8184C8.96704 6.16996 8.21509 5.73637 7.50025 5.80863C7.09009 5.84965 6.73853 5.99613 6.42212 6.26176C6.14868 6.49027 5.94556 6.83012 5.85962 7.17387C5.66821 7.9434 5.98853 8.73051 6.64087 9.16996C7.34986 9.64848 8.32837 9.51176 8.92798 8.92582C9.14673 8.71098 9.15845 8.30863 8.92798 8.0977C8.69165 7.88285 8.33423 7.87113 8.09986 8.09965ZM12.8362 12.8301C12.8088 12.8575 12.7815 12.8809 12.7522 12.9063C12.678 12.9727 12.8831 12.8164 12.76 12.8985C12.6995 12.9395 12.635 12.9727 12.5686 13.002L12.7092 12.9434C12.6018 12.9883 12.4905 13.0196 12.3752 13.0352C12.428 13.0274 12.4788 13.0215 12.5315 13.0137C12.426 13.0254 12.3206 13.0254 12.2131 13.0137C12.2659 13.0215 12.3167 13.0274 12.3694 13.0352C12.2542 13.0196 12.1428 12.9883 12.0354 12.9434L12.176 13.002C12.1096 12.9727 12.0452 12.9395 11.9846 12.8985C11.8616 12.8164 12.0647 12.9727 11.9924 12.9063C11.9651 12.8809 11.9358 12.8575 11.9084 12.8301C11.8811 12.8028 11.8577 12.7754 11.8323 12.7461C11.7659 12.6719 11.9221 12.877 11.8401 12.7539C11.7991 12.6934 11.7659 12.6289 11.7366 12.5625L11.7952 12.7032C11.7502 12.5957 11.719 12.4844 11.7034 12.3692C11.7112 12.4219 11.717 12.4727 11.7249 12.5254C11.7131 12.42 11.7131 12.3145 11.7249 12.2071C11.717 12.2598 11.7112 12.3106 11.7034 12.3633C11.719 12.2481 11.7502 12.1368 11.7952 12.0293L11.7366 12.17C11.7659 12.1036 11.7991 12.0391 11.8401 11.9786C11.9221 11.8555 11.7659 12.0586 11.8323 11.9864C11.8577 11.959 11.8811 11.9297 11.9084 11.9024C11.9358 11.875 11.9631 11.8516 11.9924 11.8262C12.0667 11.7598 11.8616 11.9161 11.9846 11.834C12.0452 11.793 12.1096 11.7598 12.176 11.7305L12.0354 11.7891C12.1428 11.7442 12.2542 11.7129 12.3694 11.6973C12.3167 11.7051 12.2659 11.711 12.2131 11.7188C12.3186 11.7071 12.4241 11.7071 12.5315 11.7188C12.4788 11.711 12.428 11.7051 12.3752 11.6973C12.4905 11.7129 12.6018 11.7442 12.7092 11.7891L12.5686 11.7305C12.635 11.7598 12.6995 11.793 12.76 11.834C12.8831 11.9161 12.6799 11.7598 12.7522 11.8262C12.7795 11.8516 12.8088 11.875 12.8362 11.9024C12.8635 11.9297 12.887 11.9571 12.9124 11.9864C12.9788 12.0606 12.8225 11.8555 12.9045 11.9786C12.9456 12.0391 12.9788 12.1036 13.0081 12.17L12.9495 12.0293C12.9944 12.1368 13.0256 12.2481 13.0413 12.3633C13.0334 12.3106 13.0276 12.2598 13.0198 12.2071C13.0315 12.3125 13.0315 12.418 13.0198 12.5254C13.0276 12.4727 13.0334 12.4219 13.0413 12.3692C13.0256 12.4844 12.9944 12.5957 12.9495 12.7032L13.0081 12.5625C12.9788 12.6289 12.9456 12.6934 12.9045 12.7539C12.8225 12.877 12.9788 12.6739 12.9124 12.7461C12.887 12.7754 12.8616 12.8028 12.8362 12.8301C12.6213 13.0489 12.6018 13.4434 12.8362 13.6582C13.0686 13.8711 13.4358 13.8926 13.6643 13.6582C13.9124 13.4043 14.1077 13.0704 14.1643 12.7168C14.2307 12.3086 14.1838 11.9258 14.0081 11.5489C13.7034 10.9004 12.9514 10.4668 12.2366 10.5391C11.8264 10.5801 11.4749 10.7266 11.1584 10.9922C10.885 11.2207 10.6819 11.5606 10.5959 11.9043C10.4045 12.6739 10.7249 13.461 11.3772 13.9004C12.0862 14.3789 13.0647 14.2422 13.6643 13.6563C13.8831 13.4414 13.8948 13.0391 13.6643 12.8282C13.428 12.6133 13.0686 12.6016 12.8362 12.8301Z" fill="#2B59FF"/>
</g>
</g>
<defs>
<clipPath id="clip0_246_671">
<rect width="20" height="20" fill="white"/>
</clipPath>
<clipPath id="clip1_246_671">
<rect width="20" height="20" fill="white"/>
</clipPath>
</defs>
</svg>
