<svg width="20" height="20" viewBox="0 0 20 20" fill="none" xmlns="http://www.w3.org/2000/svg">
<path d="M10 1.25C5.16797 1.25 1.25 5.16797 1.25 10C1.25 14.832 5.16797 18.75 10 18.75C14.832 18.75 18.75 14.832 18.75 10C18.75 5.16797 14.832 1.25 10 1.25ZM10 17.2656C5.98828 17.2656 2.73438 14.0117 2.73438 10C2.73438 5.98828 5.98828 2.73438 10 2.73438C14.0117 2.73438 17.2656 5.98828 17.2656 10C17.2656 14.0117 14.0117 17.2656 10 17.2656ZM12.2988 5.76953C11.9883 5.70117 11.627 5.66406 11.2188 5.66406C9.13477 5.66406 7.72461 6.75195 7.33984 8.5918H6.71875C6.63281 8.5918 6.5625 8.66211 6.5625 8.74805V9.2793C6.5625 9.36523 6.63281 9.43555 6.71875 9.43555H7.23438C7.22852 9.51562 7.22852 9.59961 7.22852 9.68555V10.4062H6.71875C6.63281 10.4062 6.5625 10.4766 6.5625 10.5625V11.0938C6.5625 11.1797 6.63281 11.25 6.71875 11.25H7.30859C7.64453 13.1875 9.07422 14.3359 11.2188 14.3359C11.627 14.3359 11.9883 14.3027 12.2988 14.2363C12.3711 14.2207 12.4238 14.1582 12.4238 14.084V13.248C12.4238 13.1504 12.334 13.0762 12.2383 13.0957C11.9512 13.1504 11.6152 13.1758 11.2266 13.1758C9.88867 13.1758 8.99023 12.4609 8.69141 11.25H11.2422C11.3281 11.25 11.3984 11.1797 11.3984 11.0938V10.5625C11.3984 10.4766 11.3281 10.4062 11.2422 10.4062H8.57812V9.70312C8.57812 9.61133 8.57812 9.51953 8.58398 9.43359H11.2383C11.3242 9.43359 11.3945 9.36328 11.3945 9.27734V8.74609C11.3945 8.66016 11.3242 8.58984 11.2383 8.58984H8.73242C9.06836 7.47852 9.94922 6.82422 11.2246 6.82422C11.6133 6.82422 11.9492 6.85352 12.2344 6.91016C12.257 6.91478 12.2804 6.91432 12.3028 6.90882C12.3253 6.90331 12.3462 6.8929 12.3642 6.87833C12.3821 6.86376 12.3966 6.84539 12.4065 6.82455C12.4165 6.80371 12.4218 6.78092 12.4219 6.75781V5.92188C12.4219 5.84766 12.3711 5.78516 12.2988 5.76953Z" fill="#2B59FF"/>
</svg>
