<svg width="10" height="6" viewBox="0 0 10 6" fill="none" xmlns="http://www.w3.org/2000/svg">
<path fill-rule="evenodd" clip-rule="evenodd" d="M5.47133 4.97136C5.34631 5.09634 5.17677 5.16655 4.99999 5.16655C4.82322 5.16655 4.65368 5.09634 4.52866 4.97136L0.757328 1.20003C0.693655 1.13853 0.642866 1.06496 0.607927 0.983628C0.572988 0.902292 0.554597 0.814812 0.553828 0.726293C0.553058 0.637773 0.569926 0.549987 0.603447 0.468056C0.636968 0.386125 0.68647 0.31169 0.749065 0.249095C0.81166 0.1865 0.886094 0.136998 0.968025 0.103477C1.04996 0.0699566 1.13774 0.053089 1.22626 0.0538582C1.31478 0.0546274 1.40226 0.0730182 1.4836 0.107958C1.56493 0.142897 1.6385 0.193685 1.69999 0.257358L4.99999 3.55736L8.3 0.257358C8.42573 0.13592 8.59413 0.0687234 8.76893 0.0702423C8.94373 0.0717612 9.11094 0.141874 9.23454 0.265479C9.35815 0.389085 9.42826 0.556293 9.42978 0.731091C9.4313 0.905889 9.3641 1.07429 9.24266 1.20003L5.47133 4.97136Z" fill="white"/>
</svg>
