<svg width="12" height="8" viewBox="0 0 12 8" fill="none" xmlns="http://www.w3.org/2000/svg">
<path fill-rule="evenodd" clip-rule="evenodd" d="M6.58917 7.08917C6.43289 7.24539 6.22097 7.33316 6 7.33316C5.77903 7.33316 5.56711 7.24539 5.41083 7.08917L0.696668 2.375C0.617076 2.29813 0.553591 2.20617 0.509916 2.1045C0.466242 2.00283 0.443254 1.89348 0.442292 1.78284C0.441331 1.67219 0.462416 1.56245 0.504316 1.46004C0.546217 1.35763 0.608095 1.26458 0.686339 1.18634C0.764583 1.10809 0.857626 1.04622 0.960039 1.00432C1.06245 0.962415 1.17219 0.941331 1.28284 0.942292C1.39348 0.943254 1.50283 0.966242 1.6045 1.00992C1.70617 1.05359 1.79813 1.11708 1.875 1.19667L6 5.32167L10.125 1.19667C10.2822 1.04487 10.4927 0.960874 10.7112 0.962772C10.9297 0.964671 11.1387 1.05231 11.2932 1.20682C11.4477 1.36133 11.5353 1.57034 11.5372 1.78883C11.5391 2.00733 11.4551 2.21783 11.3033 2.375L6.58917 7.08917Z" fill="#4A4A4A"/>
</svg>
