<svg width="23" height="22" viewBox="0 0 23 22" fill="none" xmlns="http://www.w3.org/2000/svg">
<path d="M18.8448 7.90001C18.4441 6.94381 17.8613 6.07469 17.1287 5.34109C16.3983 4.60621 15.5307 4.02194 14.5751 3.62144C13.5962 3.20918 12.5445 2.99785 11.4823 3.00002H11.4466C10.3662 3.00537 9.32158 3.21966 8.33765 3.64109C7.39028 4.04568 6.53082 4.63099 5.8073 5.3643C5.08182 6.09625 4.50564 6.96234 4.11087 7.9143C3.70108 8.90423 3.49343 9.96613 3.50016 11.0375C3.50552 12.2768 3.80194 13.5071 4.35551 14.6071V17.3214C4.35551 17.775 4.72337 18.1429 5.17516 18.1429H7.88587C8.991 18.7005 10.2105 18.9939 11.4484 19H11.4859C12.5537 19 13.5876 18.7929 14.5626 18.3875C15.5134 17.9918 16.3778 17.4143 17.1073 16.6875C17.843 15.9571 18.4216 15.1036 18.8269 14.1518C19.2466 13.1661 19.4609 12.1179 19.4662 11.0357C19.4698 9.94822 19.2591 8.89287 18.8448 7.90001ZM7.91801 11.8572C7.44658 11.8572 7.06265 11.4732 7.06265 11C7.06265 10.5268 7.44658 10.1429 7.91801 10.1429C8.38944 10.1429 8.77337 10.5268 8.77337 11C8.77337 11.4732 8.39122 11.8572 7.91801 11.8572ZM11.4823 11.8572C11.0109 11.8572 10.6269 11.4732 10.6269 11C10.6269 10.5268 11.0109 10.1429 11.4823 10.1429C11.9537 10.1429 12.3376 10.5268 12.3376 11C12.3376 11.4732 11.9537 11.8572 11.4823 11.8572ZM15.0466 11.8572C14.5751 11.8572 14.1912 11.4732 14.1912 11C14.1912 10.5268 14.5751 10.1429 15.0466 10.1429C15.518 10.1429 15.9019 10.5268 15.9019 11C15.9019 11.4732 15.518 11.8572 15.0466 11.8572Z" fill="#1E1E1E"/>
</svg>
