<svg width="20" height="20" viewBox="0 0 20 20" fill="none" xmlns="http://www.w3.org/2000/svg">
<g clip-path="url(#clip0_246_754)">
<g clip-path="url(#clip1_246_754)">
<path d="M0.416992 12.0834H13.7503V13.7501C13.7503 14.8552 13.3113 15.915 12.5299 16.6964C11.7485 17.4778 10.6887 17.9168 9.58366 17.9168H4.58366C3.47859 17.9168 2.41878 17.4778 1.63738 16.6964C0.855979 15.915 0.416992 14.8552 0.416992 13.7501V12.0834Z" stroke="#2B59FF" stroke-linejoin="round"/>
<path d="M2.08333 17.0834V19.5834H3.33333C3.33333 19.5834 3.75 17.9167 5 17.9167M12.0833 17.0834V19.5834H10.8333C10.8333 19.5834 10.4167 17.9167 9.16667 17.9167M5.41667 2.50008C5.41667 1.94755 5.19717 1.41764 4.80647 1.02694C4.41577 0.636241 3.88587 0.416748 3.33333 0.416748C2.7808 0.416748 2.2509 0.636241 1.86019 1.02694C1.46949 1.41764 1.25 1.94755 1.25 2.50008V12.0834" stroke="#2B59FF" stroke-linejoin="round"/>
<path d="M6.66732 2.5H4.16732C3.70708 2.5 3.33398 2.8731 3.33398 3.33333C3.33398 3.79357 3.70708 4.16667 4.16732 4.16667H6.66732C7.12756 4.16667 7.50065 3.79357 7.50065 3.33333C7.50065 2.8731 7.12756 2.5 6.66732 2.5Z" stroke="#2B59FF" stroke-linejoin="round"/>
<path d="M18.7507 6.25H12.9173C12.4571 6.25 12.084 6.6231 12.084 7.08333C12.084 7.54357 12.4571 7.91667 12.9173 7.91667H18.7507C19.2109 7.91667 19.584 7.54357 19.584 7.08333C19.584 6.6231 19.2109 6.25 18.7507 6.25Z" stroke="#2B59FF" stroke-linejoin="round"/>
<path d="M15.0003 11.2501V17.9167M15.0003 17.9167H16.667M15.0003 17.9167C14.5583 17.9167 14.1344 18.0923 13.8218 18.4049C13.5093 18.7175 13.3337 19.1414 13.3337 19.5834H18.3337C18.3337 19.1414 18.1581 18.7175 17.8455 18.4049C17.5329 18.0923 17.109 17.9167 16.667 17.9167M16.667 17.9167V11.2501M17.5003 6.25008V5.00008L15.417 3.75008V5.00008M1.66699 13.7501H2.50033M3.33366 13.7501H4.16699M5.00033 13.7501H5.83366M12.917 7.91674H18.7503V8.75008C18.7503 9.41312 18.4869 10.049 18.0181 10.5178C17.5493 10.9867 16.9134 11.2501 16.2503 11.2501H15.417C14.754 11.2501 14.1181 10.9867 13.6492 10.5178C13.1804 10.049 12.917 9.41312 12.917 8.75008V7.91674ZM5.00033 7.08341C5.00033 6.62299 4.62741 5.41674 4.16699 5.41674C3.70658 5.41674 3.33366 6.62508 3.33366 7.08341C3.33366 7.30442 3.42146 7.51638 3.57774 7.67267C3.73402 7.82895 3.94598 7.91674 4.16699 7.91674C4.38801 7.91674 4.59997 7.82895 4.75625 7.67267C4.91253 7.51638 5.00033 7.30442 5.00033 7.08341ZM7.50033 9.58341C7.50033 9.12299 7.12741 7.91674 6.66699 7.91674C6.20658 7.91674 5.83366 9.12299 5.83366 9.58341C5.83366 9.80442 5.92146 10.0164 6.07774 10.1727C6.23402 10.3289 6.44598 10.4167 6.66699 10.4167C6.88801 10.4167 7.09997 10.3289 7.25625 10.1727C7.41253 10.0164 7.50033 9.80442 7.50033 9.58341Z" stroke="#2B59FF" stroke-linejoin="round"/>
</g>
</g>
<defs>
<clipPath id="clip0_246_754">
<rect width="20" height="20" fill="white"/>
</clipPath>
<clipPath id="clip1_246_754">
<rect width="20" height="20" fill="white"/>
</clipPath>
</defs>
</svg>
