<svg width="20" height="20" viewBox="0 0 20 20" fill="none" xmlns="http://www.w3.org/2000/svg">
<g clip-path="url(#clip0_246_767)">
<path d="M18 2H17.0566L15.6568 3.4L14.2564 2H12.8144L11.6498 3.1648L10.4858 2H8.5996L10.9428 4.3428L10 5.2854L6.7138 2H4.8284L7.1716 4.343L6.2288 5.2858L2.943 2H2V2.9426L7.1712 8.114L6.2288 9.0574L2 4.8282V6.7142L3.4004 8.1142L2 9.5146V11.4004L4.343 9.0574L5.2858 10L2 13.2858V15.1714L4.343 12.8282L5.2854 13.7722L2 17.0572V18H2.9426L4.343 16.5996L5.7434 18H6.7138L8.1138 16.5996L9.5144 18H11.3998L9.0574 15.6568L10 14.7142L13.2858 18H15.1714L12.8282 15.6568L13.7722 14.7148L17.0572 18H18V17.0572L16.5996 15.6568L12.8282 11.8854L13.7722 10.9434L18 15.1718V13.2856L16.5996 11.8852L18 10.485V8.5994L15.6568 10.9428L14.7142 10L18 6.7138V4.8284L15.6568 7.1716L14.7142 6.2288L18 2.9426V2ZM8.1142 5.2858L10.9428 8.1142L10 9.0574L7.1716 6.2288L8.1142 5.2858ZM8.1142 9.0574L9.0574 10L6.2288 12.8282L5.2858 11.8854L8.1142 9.0574ZM6.2288 16.5996L5.2858 15.6568L8.1142 12.828L9.0572 13.7714L6.2288 16.5996ZM11.8854 14.7142L9.0574 11.8852L10 10.9428L12.8282 13.7716L11.8854 14.7142ZM11.8854 10.9428L10.9428 10L13.7716 7.1716L14.7144 8.1142L11.8854 10.9428ZM11.8854 7.1716L10.9428 6.2288L13.7716 3.4004L14.7144 4.343L11.8854 7.1716Z" fill="#2B59FF"/>
</g>
<defs>
<clipPath id="clip0_246_767">
<rect width="20" height="20" fill="white"/>
</clipPath>
</defs>
</svg>
