<svg width="20" height="20" viewBox="0 0 20 20" fill="none" xmlns="http://www.w3.org/2000/svg">
<g clip-path="url(#clip0_246_739)">
<path fill-rule="evenodd" clip-rule="evenodd" d="M5 3.75C4.30973 3.75 3.75 4.30973 3.75 5V6.875C3.75 7.56528 4.30973 8.125 5 8.125H6.875C7.56528 8.125 8.125 7.56528 8.125 6.875V5C8.125 4.30973 7.56528 3.75 6.875 3.75H5ZM5 2.5C3.61937 2.5 2.5 3.61937 2.5 5V6.875C2.5 8.25563 3.61937 9.375 5 9.375H6.875C8.25563 9.375 9.375 8.25563 9.375 6.875V5C9.375 3.61937 8.25563 2.5 6.875 2.5H5ZM5 11.875C4.30973 11.875 3.75 12.4347 3.75 13.125V15C3.75 15.6903 4.30973 16.25 5 16.25H6.875C7.56528 16.25 8.125 15.6903 8.125 15V13.125C8.125 12.4347 7.56528 11.875 6.875 11.875H5ZM5 10.625C3.61937 10.625 2.5 11.7444 2.5 13.125V15C2.5 16.3806 3.61937 17.5 5 17.5H6.875C8.25563 17.5 9.375 16.3806 9.375 15V13.125C9.375 11.7444 8.25563 10.625 6.875 10.625H5ZM13.125 3.75C12.4347 3.75 11.875 4.30973 11.875 5V6.875C11.875 7.56528 12.4347 8.125 13.125 8.125H15C15.6903 8.125 16.25 7.56528 16.25 6.875V5C16.25 4.30973 15.6903 3.75 15 3.75H13.125ZM13.125 2.5C11.7444 2.5 10.625 3.61937 10.625 5V6.875C10.625 8.25563 11.7444 9.375 13.125 9.375H15C16.3806 9.375 17.5 8.25563 17.5 6.875V5C17.5 3.61937 16.3806 2.5 15 2.5H13.125ZM13.125 11.875C12.4347 11.875 11.875 12.4347 11.875 13.125V15C11.875 15.6903 12.4347 16.25 13.125 16.25H15C15.6903 16.25 16.25 15.6903 16.25 15V13.125C16.25 12.4347 15.6903 11.875 15 11.875H13.125ZM13.125 10.625C11.7444 10.625 10.625 11.7444 10.625 13.125V15C10.625 16.3806 11.7444 17.5 13.125 17.5H15C16.3806 17.5 17.5 16.3806 17.5 15V13.125C17.5 11.7444 16.3806 10.625 15 10.625H13.125Z" fill="#2B59FF"/>
</g>
<defs>
<clipPath id="clip0_246_739">
<rect width="20" height="20" fill="white"/>
</clipPath>
</defs>
</svg>
