<svg width="20" height="20" viewBox="0 0 20 20" fill="none" xmlns="http://www.w3.org/2000/svg">
<g clip-path="url(#clip0_246_747)">
<path d="M3.41634 10.8333C3.74967 9.16659 5.08301 7.83325 6.83301 7.58325L7.49968 7.41659L8.16634 7.49992C9.91634 7.74992 11.2497 9.08325 11.583 10.7499H3.41634V10.8333Z" fill="#E7F6FD"/>
<path d="M7.4998 8.33333L8.08313 8.41667C9.08313 8.58333 9.91646 9.16667 10.4165 10H4.58313C5.08313 9.16667 5.91646 8.58333 6.91646 8.41667L7.4998 8.33333ZM13.3331 0C9.66646 0 6.66646 3 6.66646 6.66667V6.75C4.33313 7.16667 2.4998 9.16667 2.4998 11.6667H12.4998C12.4998 9.16667 10.6665 7.16667 8.33313 6.75V6.66667C8.33313 3.91667 10.5831 1.66667 13.3331 1.66667C16.0831 1.66667 18.3331 3.91667 18.3331 6.66667V20H19.9998V6.66667C19.9998 3 16.9998 0 13.3331 0ZM11.9165 13C11.8331 13 11.7498 13 11.6665 13.0833C11.2498 13.25 10.9998 13.75 11.1665 14.1667L11.7498 14.9167C11.8331 15.25 12.1665 15.5 12.4998 15.5C12.5831 15.5 12.6665 15.5 12.7498 15.4167C13.1665 15.25 13.4165 14.75 13.2498 14.3333L12.6665 13.5833C12.5831 13.1667 12.2498 13 11.9165 13ZM3.08313 13C2.7498 13 2.41646 13.25 2.33313 13.5833L1.7498 14.3333C1.58313 14.75 1.83313 15.25 2.2498 15.4167C2.33313 15.4167 2.41646 15.5 2.4998 15.5C2.83313 15.5 3.16646 15.25 3.2498 14.9167L3.83313 14.1667C3.9998 13.75 3.7498 13.25 3.33313 13.0833C3.2498 13 3.16646 13 3.08313 13ZM7.4998 13.3333C6.9998 13.3333 6.66646 13.6667 6.66646 14.1667V15C6.66646 15.5 6.9998 15.8333 7.4998 15.8333C7.9998 15.8333 8.33313 15.5 8.33313 15V14.1667C8.33313 13.75 7.9998 13.3333 7.4998 13.3333ZM13.5831 16.8333C13.4998 16.8333 13.4165 16.8333 13.3331 16.9167C12.9165 17.0833 12.6665 17.5833 12.8331 18L13.0831 18.75C13.1665 19.0833 13.4998 19.3333 13.8331 19.3333C13.9165 19.3333 13.9998 19.3333 14.0831 19.25C14.4998 19.0833 14.7498 18.5833 14.5831 18.1667L14.3331 17.4167C14.2498 17.0833 13.9165 16.8333 13.5831 16.8333ZM1.41646 16.8333C1.08313 16.8333 0.749796 17.0833 0.666463 17.4167L0.416463 18.1667C0.249796 18.5833 0.499796 19.0833 0.916463 19.25C0.999796 19.25 1.08313 19.3333 1.16646 19.3333C1.4998 19.3333 1.83313 19.0833 1.91646 18.75L2.16646 18C2.33313 17.5833 2.08313 17.0833 1.66646 16.9167C1.58313 16.9167 1.4998 16.8333 1.41646 16.8333ZM7.4998 17.5C6.9998 17.5 6.66646 17.8333 6.66646 18.3333V19.1667C6.66646 19.6667 6.9998 20 7.4998 20C7.9998 20 8.33313 19.6667 8.33313 19.1667V18.3333C8.33313 17.9167 7.9998 17.5 7.4998 17.5Z" fill="#2B59FF"/>
</g>
<defs>
<clipPath id="clip0_246_747">
<rect width="20" height="20" fill="white"/>
</clipPath>
</defs>
</svg>
